<svg xmlns="http://www.w3.org/2000/svg" viewBox="0 0 443.76 409.44"><defs><style>.cls-1{fill:#00df4b;}.cls-2{fill:#ffd835;}.cls-3{fill:#fff;}.cls-4{fill:#ffc900;opacity:0.6;}.cls-16,.cls-4{isolation:isolate;}.cls-5{fill:#473a51;}.cls-6{fill:#5f7091;}.cls-7{fill:#eca87b;}.cls-8{fill:#df2b00;}.cls-9{fill:#4f3b4d;}.cls-10{fill:#697a9e;}.cls-11{fill:#5858bc;}.cls-12{fill:#e8e8f7;}.cls-13{fill:#0ad2ff;}.cls-14{fill:#5e5e5e;}.cls-15,.cls-16{fill:#353433;}.cls-16{opacity:0.32;}.cls-17{fill:#787678;}.cls-18{fill:#e2e2e2;}.cls-19{fill:#3e3e3d;}.cls-20{fill:#333;}.cls-21,.cls-24,.cls-28,.cls-29{fill:none;stroke-miterlimit:10;}.cls-21,.cls-28{stroke:#5e5e5e;}.cls-21{stroke-width:1.14px;}.cls-22{fill:#2b2b2b;}.cls-23{fill:#2a2a2a;}.cls-24,.cls-29{stroke:#515151;}.cls-24{stroke-width:0.24px;}.cls-25{fill:#232323;}.cls-26{fill:#1d1d1c;}.cls-27{fill:#515151;}.cls-28{stroke-width:1.74px;}.cls-29{stroke-width:0.37px;}</style></defs><title>who we arw</title><g id="Layer_2" data-name="Layer 2"><g id="Layer_1-2" data-name="Layer 1"><g id="OBJECTS"><circle class="cls-1" cx="216.63" cy="322.52" r="63.19"/><path class="cls-2" d="M229.55,227.14s3.29,32.67,30.56,40.78,42,2.94,58.21-14c0,0-4.42,33.16-22.84,45.68,0,0,43.47-5.28,57.48-50.54,0,0,42-3,44.21-41.81,0,0,40.53-13.76,45.69-50.6s-12.53-47.9-36.11-61.9c0,0,9.45-21.14-17.3-42.14-18.75-11-40.92.87-40.92.87S338.22,17.37,288.11,15.9c-15.48,0-40.23,15.47-42.59,32.42,0,0-29.41-17.68-56.41,1.47s-19.23,54.54-10.22,70.75c0,0-28.92,28-13.28,67.79S229.55,227.14,229.55,227.14Z"/><path class="cls-3" d="M311.27,190.11H274.6v-3.67q0-9.36,2.12-15.2A33.86,33.86,0,0,1,283,160.58q4.2-4.83,18.87-17,7.81-6.37,7.82-11.68t-3.14-8.25q-3.12-2.94-9.5-2.94a15.24,15.24,0,0,0-11.34,4.54q-4.48,4.53-5.74,15.82l-37.45-4.63q1.95-20.65,15-33.25t40.1-12.59q21,0,34,8.78Q349.2,111.25,349.18,131a30.41,30.41,0,0,1-4.54,15.82q-4.53,7.63-18.52,18.63-9.75,7.72-12.31,12.4T311.27,190.11Zm-20.6,9.74h4.63a17.31,17.31,0,0,1,17.32,17.32h0A17.31,17.31,0,0,1,295.3,234.5h-4.63a17.32,17.32,0,0,1-17.32-17.32h0a17.33,17.33,0,0,1,17.31-17.33Z"/><path class="cls-4" d="M185.42,367.81H135.54c-22,0-25,11.41-13,13s37,9.05,25,12.55-14.5,15,5,15.5,118,1,134,0,7.79-14.5-11.61-14-10.44-5.93,20.08-6.22,52.53-17.57,16.53-18.68S185.42,367.81,185.42,367.81Z"/><path class="cls-5" d="M193.58,378.8s-8.69-2-12.38,0-.8,10.26,18.76,7.34Z"/><path class="cls-5" d="M239.56,378.8s8.7-2,12.38,0,.81,10.26-18.76,7.34Z"/><path class="cls-6" d="M180.71,360.37s-8.6-2-7.12,8.6c1.47,6.88,26.37,17.17,26.37,17.17V365.41Z"/><path class="cls-7" d="M211.41,313.8v6.06s4.76,6,10.43,0V313.8S214.87,307.64,211.41,313.8Z"/><path class="cls-6" d="M254,360.37s8.6-2,7.12,8.6c-1.47,6.88-26.37,17.17-26.37,17.17V365.41Z"/><path class="cls-8" d="M234,323l-8.28-3A25.48,25.48,0,0,0,208,320l-8.35,3s-12,6.63-2.21,40.77c0,0,5.9,5.16,19.41,5.16s19.4-5.16,19.4-5.16C246.08,329.67,234,323,234,323Z"/><path class="cls-9" d="M211.06,278.66s-6.06-1.78-8.91,2.13,0,9.08,0,9.08-4.45.89-5.16,6.41,3.38,7.3,3.38,7.3a7.76,7.76,0,0,0,.36,8.19c1.78,2.49,7.66,0,7.66,0a3.91,3.91,0,0,0,2.67,3.2c2.49.89,4.8-2,4.8-2s3,4.09,9.08,2.14,5.16-6.94,5.16-6.94,4.46.89,6.59-2.67-1.6-7.84-1.6-7.84a12.21,12.21,0,0,0,0-10.14c-2.49-5.34-6.41-3.38-6.41-3.38s.53-5.17-2.67-6.95-6.94,2.32-6.94,2.32.18-5.22-3.74-5.17C211.19,274.44,211.06,278.66,211.06,278.66Z"/><path class="cls-10" d="M197.44,363.81s-1.2,11.3,0,18.67,19.13,8.11,27.73,7.62,14.8-3.93,11.08-26.29C236.25,363.81,217.13,373.52,197.44,363.81Z"/><path class="cls-11" d="M199.24,337.67c.28,2.33.51,4.65.73,7l.61,7,.52,7c.15,2.33.3,4.66.38,7-.39-2.31-.69-4.63-1-6.95s-.46-4.65-.68-7-.34-4.66-.44-7S199.21,340,199.24,337.67Z"/><path class="cls-11" d="M234.3,337.61c0,2.34-.05,4.68-.15,7s-.28,4.67-.44,7-.41,4.65-.69,7-.57,4.64-1,6.95c.07-2.34.23-4.68.38-7l.51-7,.62-7C233.8,342.26,234,339.93,234.3,337.61Z"/><ellipse class="cls-12" cx="111.2" cy="393.18" rx="10.33" ry="2.97"/><ellipse class="cls-12" cx="347.7" cy="387.18" rx="13.5" ry="3.03"/><path class="cls-12" d="M317.54,403.48c0,.55-1.94,1-4.34,1s-4.33-.45-4.33-1,1.94-1,4.33-1S317.54,402.93,317.54,403.48Z"/><ellipse class="cls-12" cx="92.87" cy="372.17" rx="5" ry="1.02"/><path class="cls-12" d="M84.2,394.67c0,.82-1.86,1.48-4.16,1.48s-4.17-.66-4.17-1.48,1.87-1.49,4.17-1.49S84.2,393.85,84.2,394.67Z"/><circle class="cls-12" cx="32.29" cy="53.62" r="5.25"/><circle class="cls-12" cx="165.16" cy="11.96" r="8.03"/><circle class="cls-12" cx="189.63" cy="248.93" r="6.39"/><circle class="cls-12" cx="387.54" cy="295.03" r="3"/><path class="cls-12" d="M79.81,299.6a3.94,3.94,0,1,1-4-3.93h0A3.94,3.94,0,0,1,79.81,299.6Z"/><path class="cls-12" d="M369.07,3.93A3.94,3.94,0,1,1,365.12,0h0A3.93,3.93,0,0,1,369.07,3.93Z"/><path class="cls-13" d="M156.09,65.15,29.58,98.84A39.8,39.8,0,0,0,1.35,147.55h0l23.13,86.89a39.82,39.82,0,0,0,46.43,28.76C82.08,279.12,102.05,286.84,100,284a53.22,53.22,0,0,1-9.75-25.84L199.72,229A39.81,39.81,0,0,0,228,180.31v0L204.82,93.39A39.82,39.82,0,0,0,156.1,65.15Z"/><path class="cls-3" d="M132.5,187.28l-27.93,8.44-.84-2.79a35.9,35.9,0,0,1-1.88-12.07,26.41,26.41,0,0,1,2.36-9.57q2.08-4.65,10.46-17.28,4.48-6.64,3.26-10.69a8.52,8.52,0,0,0-4.29-5.56c-2-1-4.68-1-7.91-.06a12.18,12.18,0,0,0-7.59,6.07q-2.39,4.48-.73,13.37l-29.59,5.09q-3.27-16.17,3.78-28.77t27.64-18.82q16-4.85,27.89-1.13,16.11,5,20.66,20.07a24.25,24.25,0,0,1,.19,13.09q-1.71,6.86-9.83,18.45-5.64,8.13-6.51,12.28A20.11,20.11,0,0,0,132.5,187.28Zm-13.45,12.17,3.53-1.07a13.78,13.78,0,0,1,17.17,9.2h0a13.77,13.77,0,0,1-9.19,17.17h0L127,225.83a13.79,13.79,0,0,1-17.18-9.2h0a13.77,13.77,0,0,1,9.2-17.16Z"/><ellipse class="cls-4" cx="340.11" cy="387.11" rx="20.71" ry="2.63"/><path class="cls-14" d="M345.76,387.18a5.53,5.53,0,0,1-3.61-.23c2.56-1.13,8-2.34,12.67-12.87a4.92,4.92,0,0,1,.45,2.48A12.78,12.78,0,0,1,345.76,387.18Z"/><path class="cls-15" d="M343.24,385.38a17.09,17.09,0,0,0,10.53-13.1,5.93,5.93,0,0,0-.29-2.86l.56-1.31c.78,1.81,1.75,3.92,1.42,5.71a17.09,17.09,0,0,1-10.53,13.1c-1.9.74-3.86.3-5.86-1.29l.47-.27A5,5,0,0,0,343.24,385.38Z"/><path class="cls-14" d="M343.24,385.38a5,5,0,0,1-3.7,0c2.72-1.5,8.36-3.29,13.94-15.94a5.93,5.93,0,0,1,.29,2.86A17.1,17.1,0,0,1,343.24,385.38Z"/><path class="cls-16" d="M339.54,385.36a22.22,22.22,0,0,0,7.81-5.76l4.27,4.25a13.79,13.79,0,0,1-5.86,3.33,5.16,5.16,0,0,1-2.53.08,6.45,6.45,0,0,1-4.16-1.63Z"/><ellipse class="cls-15" cx="334.45" cy="368.05" rx="23.15" ry="18.39" transform="translate(-162.77 377.78) rotate(-48.86)"/><ellipse class="cls-17" cx="333.79" cy="367.07" rx="23.15" ry="18.39" transform="translate(-162.25 376.95) rotate(-48.86)"/><path class="cls-18" d="M346,378.33c8.41-9.63,9-22.85,1.39-29.54a15.14,15.14,0,0,0-2.07-1.5,14.66,14.66,0,0,1,3.74,2.38c7.65,6.68,7,19.9-1.38,29.53-7.7,8.81-19.25,11.56-27,6.85C328.31,389.47,338.8,386.52,346,378.33Z"/><ellipse class="cls-18" cx="332.69" cy="365.81" rx="20.38" ry="15.1" transform="translate(-161.68 375.7) rotate(-48.86)"/><ellipse class="cls-19" cx="332.94" cy="366.11" rx="20.38" ry="15.1" transform="translate(-161.82 375.99) rotate(-48.86)"/><ellipse class="cls-20" cx="332.94" cy="366.11" rx="12.41" ry="8.85" transform="translate(-161.82 375.99) rotate(-48.86)"/><ellipse class="cls-21" cx="332.77" cy="365.95" rx="18.93" ry="13.51" transform="translate(-161.76 375.8) rotate(-48.86)"/><ellipse class="cls-22" cx="332.94" cy="366.11" rx="8.68" ry="6.19" transform="translate(-161.82 375.99) rotate(-48.86)"/><path class="cls-23" d="M351,356.64a.4.4,0,1,0,.62-.14A.44.44,0,0,0,351,356.64Z"/><path class="cls-23" d="M349.79,371c-.18.21-.21.5-.05.63a.54.54,0,0,0,.72-.23.55.55,0,0,0,0-.54A.47.47,0,0,0,349.79,371Z"/><path class="cls-23" d="M343.59,347.77a.41.41,0,1,0,.63.5.41.41,0,0,0,.13-.55.42.42,0,0,0-.56-.13.52.52,0,0,0-.15.18Z"/><path class="cls-23" d="M317.76,359.12a.41.41,0,0,0,.21.53.39.39,0,0,0,.52-.21.4.4,0,0,0-.1-.46A.47.47,0,0,0,317.76,359.12Z"/><path class="cls-23" d="M322.73,385.67a.48.48,0,0,0-.05.64.54.54,0,0,0,.68-.78A.49.49,0,0,0,322.73,385.67Z"/><path class="cls-23" d="M327.75,349.37a.46.46,0,0,0-.05.64c.15.14.43.08.62-.14a.46.46,0,0,0,.05-.64A.47.47,0,0,0,327.75,349.37Z"/><path class="cls-23" d="M314.3,372.81a.47.47,0,0,0-.06.63.47.47,0,0,0,.63-.13.46.46,0,0,0,.05-.64A.45.45,0,0,0,314.3,372.81Z"/><path class="cls-23" d="M340,382.44a.47.47,0,0,0,0,.64.46.46,0,0,0,.62-.13.4.4,0,0,0,.14-.55.39.39,0,0,0-.55-.13.44.44,0,0,0-.16.17Z"/><ellipse class="cls-24" cx="332.94" cy="366.11" rx="16.14" ry="10.87" transform="translate(-161.82 375.99) rotate(-48.86)"/><ellipse class="cls-24" cx="332.94" cy="366.11" rx="13.5" ry="9.09" transform="translate(-161.82 375.99) rotate(-48.86)"/><ellipse class="cls-24" cx="332.94" cy="366.11" rx="10.39" ry="7" transform="translate(-161.82 375.99) rotate(-48.86)"/><path class="cls-25" d="M331.73,364.56c2.53-2.75,6.11-2.09,8.51.14a11.35,11.35,0,0,1-8,8.92C329.18,370.78,329.18,367.32,331.73,364.56Z"/><path class="cls-26" d="M338.59,363.52a8,8,0,0,1,1.65,1.18,11.35,11.35,0,0,1-8,8.92,7.59,7.59,0,0,1-2.06-2.94C334.29,371.94,338.65,368.3,338.59,363.52Z"/><path class="cls-27" d="M333.57,363.8a6.06,6.06,0,0,0-1.64,1.51,7.28,7.28,0,0,0-1.33,4.13,4.87,4.87,0,0,0,.59,2.14,4,4,0,0,1-.93-2.11,5.92,5.92,0,0,1,.26-2.33,6,6,0,0,1,1.11-2.07A4.36,4.36,0,0,1,333.57,363.8Z"/><path class="cls-19" d="M346.25,378.78c8.41-9.63,9-22.85,1.38-29.53a14.88,14.88,0,0,0-4.83-2.83,15.07,15.07,0,0,1,6.22,3.25c7.65,6.68,7,19.9-1.38,29.53-6.83,7.81-16.68,10.86-24.24,8.16C330.74,389.25,339.83,386.12,346.25,378.78Z"/><ellipse class="cls-4" cx="95.82" cy="393.17" rx="31.73" ry="4.03"/><path class="cls-14" d="M87.16,393.29a8.56,8.56,0,0,0,5.54-.36c-3.93-1.72-12.21-3.58-19.41-19.71A7.36,7.36,0,0,0,72.6,377C73.78,385.07,79.28,391,87.16,393.29Z"/><path class="cls-15" d="M91,390.52c-8.27-3.19-14.35-10.55-16.13-20.06a9.36,9.36,0,0,1,.45-4.39c-.28-.65-.57-1.31-.85-2-1.2,2.77-2.69,6-2.18,8.75,1.78,9.51,7.86,16.87,16.13,20.07q4.36,1.68,9-2-.33-.21-.72-.42A7.64,7.64,0,0,1,91,390.52Z"/><path class="cls-14" d="M91,390.52a7.61,7.61,0,0,0,5.67,0c-4.16-2.29-12.81-5-21.35-24.42a9.36,9.36,0,0,0-.45,4.39C76.67,380,82.75,387.33,91,390.52Z"/><path class="cls-16" d="M96.69,390.49c-2.6-1.43-7-3.05-12-8.82l-6.53,6.5a21.05,21.05,0,0,0,9,5.12,8,8,0,0,0,3.88.12,9.86,9.86,0,0,0,6.37-2.5Q97.08,390.7,96.69,390.49Z"/><ellipse class="cls-15" cx="104.47" cy="364.06" rx="28.17" ry="35.46" transform="translate(-213.72 158.62) rotate(-41.14)"/><ellipse class="cls-17" cx="105.49" cy="362.55" rx="28.17" ry="35.46" transform="translate(-212.48 158.92) rotate(-41.14)"/><path class="cls-18" d="M86.85,379.72C74,365,73,344.72,84.73,334.48a23.14,23.14,0,0,1,3.17-2.31,22.67,22.67,0,0,0-5.73,3.65c-11.71,10.24-10.76,30.49,2.12,45.24,11.79,13.49,29.48,17.7,41.38,10.48C113.9,396.79,97.82,392.27,86.85,379.72Z"/><ellipse class="cls-18" cx="107.17" cy="360.63" rx="23.12" ry="31.22" transform="translate(-210.8 159.54) rotate(-41.14)"/><ellipse class="cls-19" cx="106.79" cy="361.07" rx="23.12" ry="31.22" transform="translate(-211.19 159.4) rotate(-41.14)"/><ellipse class="cls-20" cx="106.79" cy="361.07" rx="13.55" ry="19.01" transform="translate(-211.19 159.4) rotate(-41.14)"/><ellipse class="cls-28" cx="107.04" cy="360.84" rx="20.7" ry="29" transform="translate(-210.97 159.51) rotate(-41.14)"/><ellipse class="cls-22" cx="106.79" cy="361.07" rx="9.48" ry="13.3" transform="translate(-211.19 159.4) rotate(-41.14)"/><path class="cls-23" d="M79.21,346.5a.61.61,0,0,1-.62,1.05,1.3,1.3,0,0,1-.46-1.12.61.61,0,0,1,.83-.21A.62.62,0,0,1,79.21,346.5Z"/><path class="cls-23" d="M81,368.45a.69.69,0,0,1,.11,1l0,0a.69.69,0,0,1-1-.17l0,0a.6.6,0,0,1-.17-.83.59.59,0,0,1,.83-.17.61.61,0,0,1,.21.24Z"/><path class="cls-23" d="M90.48,332.91a.61.61,0,0,1-.65,1,.58.58,0,0,1-.23-.26.61.61,0,1,1,.88-.77Z"/><path class="cls-23" d="M130.05,350.3a.7.7,0,0,1,.09,1h0a.72.72,0,0,1-1-.18v0a.63.63,0,1,1,.91-.82Z"/><path class="cls-23" d="M122.43,391a.61.61,0,1,1-1.14.44.63.63,0,0,1,.14-.65.71.71,0,0,1,1,.17Z"/><path class="cls-23" d="M114.76,335.36a.63.63,0,1,1-.9.83l0,0a.71.71,0,0,1-.08-1,.72.72,0,0,1,1,.19Z"/><path class="cls-23" d="M135.36,371.26a.61.61,0,0,1-.65,1,.58.58,0,0,1-.23-.26.61.61,0,1,1,.88-.77Z"/><path class="cls-23" d="M96.05,386a.61.61,0,0,1-1.14.44.63.63,0,0,1,.14-.65.71.71,0,0,1,1,.19Z"/><ellipse class="cls-29" cx="106.79" cy="361.07" rx="16.65" ry="24.72" transform="translate(-211.19 159.4) rotate(-41.14)"/><ellipse class="cls-29" cx="106.79" cy="361.07" rx="13.92" ry="20.67" transform="translate(-211.19 159.4) rotate(-41.14)"/><ellipse class="cls-29" cx="106.79" cy="361.07" rx="10.72" ry="15.91" transform="translate(-211.19 159.4) rotate(-41.14)"/><path class="cls-25" d="M108.65,358.63c-3.88-4.2-9.36-3.19-13,.22a16.63,16.63,0,0,0,4,8.44,16.28,16.28,0,0,0,8.17,5.22C112.57,368.15,112.56,362.86,108.65,358.63Z"/><path class="cls-26" d="M98.15,357a11.91,11.91,0,0,0-2.53,1.81,16.63,16.63,0,0,0,4,8.44,16.28,16.28,0,0,0,8.17,5.22A11.43,11.43,0,0,0,111,368C104.73,369.93,98.06,364.36,98.15,357Z"/><path class="cls-27" d="M105.83,357.47a6.6,6.6,0,0,1,3,1.94,8.65,8.65,0,0,1,1.71,3.17,8.33,8.33,0,0,1,.4,3.57,6.18,6.18,0,0,1-1.42,3.23,7.51,7.51,0,0,0,.89-3.28,9.54,9.54,0,0,0-.54-3.31,10.27,10.27,0,0,0-1.49-3A9,9,0,0,0,105.83,357.47Z"/><path class="cls-19" d="M86.41,380.41c-12.88-14.75-13.83-35-2.12-45.23a22.75,22.75,0,0,1,7.41-4.33,23.15,23.15,0,0,0-9.53,5c-11.71,10.24-10.76,30.49,2.12,45.24,10.45,12,25.55,16.63,37.13,12.5C110.17,396.45,96.24,391.66,86.41,380.41Z"/><polygon class="cls-3" points="117.25 316.58 108.23 347.38 122.31 318.95 117.25 316.58"/><polygon class="cls-3" points="120.25 353.44 132.37 338.4 135.51 343.78 120.25 353.44"/><polygon class="cls-3" points="123.83 366.08 151.48 364.31 145.33 358.23 123.83 366.08"/></g></g></g></svg>