<svg xmlns="http://www.w3.org/2000/svg" viewBox="0 0 425.72 492.65"><defs><style>.cls-1{fill:#7ac943;}.cls-10,.cls-12,.cls-2{fill:none;stroke-linecap:round;stroke-miterlimit:10;}.cls-2{stroke:#716f82;stroke-width:7px;}.cls-3{fill:#f4a891;}.cls-4{fill:#fff;}.cls-5{fill:#181827;}.cls-6{fill:#591239;}.cls-7{fill:#25253a;}.cls-8{fill:#884c2e;}.cls-9{fill:#07113d;}.cls-10,.cls-12{stroke:#07113d;}.cls-10{stroke-width:1.15px;}.cls-11{fill:#a36440;}.cls-12{stroke-width:1.14px;}.cls-13{fill:#2b1b40;}.cls-14{fill:#ffc4bc;}.cls-15{fill:#ffc7b0;}.cls-16{fill:#080b2e;}.cls-17{fill:#9995a7;}.cls-18{fill:#c2c2c7;}.cls-19{opacity:0.51;}.cls-20{fill:#85807e;}</style></defs><title>presenting</title><g id="Layer_2" data-name="Layer 2"><g id="Layer_1-2" data-name="Layer 1"><path class="cls-1" d="M79.4,86.44c-6.09,39.22,32.83,67.62,19.4,88.06-17.09,26-93-.48-98.51,14.93S68.89,235.22,64.47,273c-1.59,13.63-12,16.05-10.44,25.37C58.29,324.31,146,350.05,216.88,321c41.83-17.15,37-36.6,81.92-55.43,65.77-27.55,115.38-2.35,125.37-23.88C432.8,223.08,404,186.55,371.94,167c-42.4-25.78-70.47-3.38-100-25.37C225.23,106.89,261.22,25.42,225.67,5.85,184.53-16.8,88.19,29.81,79.4,86.44Z"/><line class="cls-2" x1="165.02" y1="489.15" x2="308.35" y2="489.15"/><path class="cls-3" d="M322.85,153.85l11.52-10.38a2.57,2.57,0,0,0,.19-3.62h0a2.57,2.57,0,0,0-3.62-.19L319.41,150a2.58,2.58,0,0,0-.19,3.62h0A2.58,2.58,0,0,0,322.85,153.85Z"/><path class="cls-3" d="M314.76,159.8l7.31-13.68a2.58,2.58,0,0,0-1.06-3.47h0a2.58,2.58,0,0,0-3.47,1.06l-7.3,13.68a2.58,2.58,0,0,0,1.05,3.47h0A2.57,2.57,0,0,0,314.76,159.8Z"/><path class="cls-3" d="M324.93,159.27,339,147.47a2.57,2.57,0,0,0,.32-3.61h0a2.59,2.59,0,0,0-3.62-.32l-14.06,11.8a2.58,2.58,0,0,0-.32,3.61h0A2.58,2.58,0,0,0,324.93,159.27Z"/><path class="cls-3" d="M325,166.63,339,154.84a2.57,2.57,0,0,0,.31-3.61h0a2.57,2.57,0,0,0-3.61-.32L321.66,162.7a2.59,2.59,0,0,0-.32,3.62h0A2.57,2.57,0,0,0,325,166.63Z"/><path class="cls-3" d="M323.11,146.66c-.16.12-2.17,1.32-4.35,2.62a27.57,27.57,0,0,0-9.29,9L305,165.4s10.39,8.69,10.93,8.41a53.44,53.44,0,0,0,15.16-12.56Z"/><polygon class="cls-4" points="302.11 162.98 308.02 158.18 321.46 175.72 313.75 180.57 302.11 162.98"/><path class="cls-5" d="M318.6,180.13l-37.14,29.26c-11.21,9.15-27.9,11.62-39.65,3a67.78,67.78,0,0,1-7.36-7c-2-2.33-19.58-34.84-19.58-34.84l14.31-32.78s20.26,42.62,21.5,44.95c2.13,4,6.07,7.47,8.22,7.8a11.82,11.82,0,0,0,9-1.76c14.9-8.48,35.77-28.49,35.77-28.49Z"/><path class="cls-6" d="M212.22,446.15c-.13,1.71-.8,26.12-.8,26.12l18.05.33-.4-30.59Z"/><path class="cls-7" d="M203.9,280.23c0,.2,0,1.34,0,3.28.89,28.42,5.87,183.46,5.87,183.46l23.28-.8,6.16-181.49Z"/><path class="cls-8" d="M209.75,487.22l47.62.34a5.13,5.13,0,0,0,5.17-5.13h0a5.16,5.16,0,0,0-3.41-4.91l-23.51-8.44-25.76.45Z"/><path class="cls-9" d="M210.1,485.43h51.66a0,0,0,0,1,0,0v0a3.47,3.47,0,0,1-3.47,3.47H210.1a0,0,0,0,1,0,0v-3.48A0,0,0,0,1,210.1,485.43Z"/><line class="cls-10" x1="235.04" y1="476.09" x2="240.63" y2="470.08"/><line class="cls-10" x1="239.14" y1="477.83" x2="244.73" y2="471.81"/><line class="cls-10" x1="243.07" y1="480.15" x2="249.36" y2="473.33"/><path class="cls-6" d="M171.36,445.85c-.1,1.7-.35,26-.35,26h18.06l-.94-30.4Z"/><path class="cls-7" d="M160.12,281.07c0,.21,0,1.33.1,3.26,1.39,28.24,9.1,182.26,9.1,182.26l23.26-1.2,3-180.52Z"/><path class="cls-11" d="M169.24,486.81l47.59,1.84a5.14,5.14,0,0,0,5.33-4.94h0a5.13,5.13,0,0,0-3.26-5l-23.22-9.12-25.76-.37Z"/><path class="cls-9" d="M217.73,490l-48.19-1.5.11-3.46,51.64,1.62h0A3.45,3.45,0,0,1,217.73,490Z"/><line class="cls-12" x1="194.88" y1="476.55" x2="200.65" y2="470.75"/><line class="cls-12" x1="198.92" y1="478.4" x2="204.7" y2="472.6"/><line class="cls-12" x1="202.77" y1="480.84" x2="209.27" y2="474.26"/><path class="cls-7" d="M240.51,276.12a21.52,21.52,0,0,1-19.34,23.46l-36,3.48a21.9,21.9,0,0,1-10.76-1.74q-.63-.27-1.23-.6a21.44,21.44,0,0,1-11.47-17l-.45-11.48,77.43-8.16Z"/><rect class="cls-3" x="179.38" y="83.9" width="24.69" height="57.5" rx="10.66" transform="translate(-16.73 35.22) rotate(-10.06)"/><path class="cls-13" d="M231.18,52.2c.06.58.11,1.15.15,1.73a38.91,38.91,0,0,1-18.46,35.5A38.59,38.59,0,0,1,196.61,95c-9.67,1-17.26,6.2-24.65,1.05a38.92,38.92,0,0,1-6.52-5.7c-.76-.84-1.49-1.7-2.18-2.6-4.2-5.49-8.63-20-9.41-27.33a38.9,38.9,0,0,1,32.82-42.55c.58-.08,1.17-.16,1.75-.22a38.79,38.79,0,0,1,33.26,13h0a38.8,38.8,0,0,1,9.48,21.62Z"/><path class="cls-14" d="M181.58,69.1a6.79,6.79,0,0,1-.15,2.47,7.64,7.64,0,0,1-1.25,2.77,7,7,0,0,1-4.61,2.76l-4.1.51-3.15.4-1.18-9.34h0l-.22-1.73-.17-1.34-.15-1.23,0-.31h0l7.23-.91a6.95,6.95,0,0,1,7,3.61A6.2,6.2,0,0,1,181.58,69.1Z"/><path class="cls-15" d="M230.25,56.42l1.89,15.1.29,2.26A31.66,31.66,0,0,1,210.12,108a9.84,9.84,0,0,1-1.21.34,30.86,30.86,0,0,1-4.36.87,29.82,29.82,0,0,1-4.31.24,31.26,31.26,0,0,1-8.12-1.11h0a31.9,31.9,0,0,1-22.87-24.07c-.08-.36-.15-.7-.21-1.07s-.15-.84-.2-1.27l0-.23-.13-1L168.32,78l-1.18-9.25v-.09h0l-.21-1.72-.17-1.34-.15-1.23,0-.31a25.83,25.83,0,0,1,.08-6.34,33.35,33.35,0,0,1,.8-4.26c0-.23.09-.42.14-.63a30.21,30.21,0,0,1,1.08-3.38v0a32.22,32.22,0,0,1,7.22-11.17c.63-.64,1.29-1.25,2-1.84a32.55,32.55,0,0,1,40.93-1.15,30.9,30.9,0,0,1,8.19,10,23.76,23.76,0,0,1,1.94,4.66A38.38,38.38,0,0,1,230.25,56.42Z"/><path class="cls-14" d="M170.29,68.24l1.18,9.37.78,6.33-2.49.31a4.91,4.91,0,0,1-.53,0,8.23,8.23,0,0,1-8.49-7.12,7.58,7.58,0,0,1,1.66-5.73,7.8,7.8,0,0,1,4.74-2.77h0a3.44,3.44,0,0,1,.64-.12Z"/><path class="cls-3" d="M203.66,109.28a21.32,21.32,0,0,1-11.54-.91h0a31.9,31.9,0,0,1-22.87-24.07,8.23,8.23,0,0,1-8.49-7.12,7.58,7.58,0,0,1,1.66-5.73,7.8,7.8,0,0,1,4.74-2.77h0l-.21-1.72-.17-1.34-.15-1.23,0-.31h0a25.83,25.83,0,0,1,.08-6.34c3.84-3.13,8.09-4.35,11.5.54,0,0,.18,2.45.62,6.16.32,2.78.77,6.25,1.4,9.92,1.26,7.53,3.2,15.86,6,20.62C192.28,105.11,203.66,109.28,203.66,109.28Z"/><path class="cls-13" d="M227,58.11l-9.95,1.76a1.81,1.81,0,0,1-2.1-1.46h0a1.82,1.82,0,0,1,1.47-2.1l9.94-1.77a1.82,1.82,0,0,1,2.1,1.47h0A1.81,1.81,0,0,1,227,58.11Z"/><path class="cls-13" d="M202.8,62.4l-9.94,1.77a1.82,1.82,0,0,1-2.1-1.47h0a1.81,1.81,0,0,1,1.46-2.1l9.95-1.76a1.81,1.81,0,0,1,2.1,1.46h0A1.82,1.82,0,0,1,202.8,62.4Z"/><path class="cls-4" d="M208.72,87.54a7.47,7.47,0,0,0,6.64,2.17c2.87-.36,5.85-2.2,6.42-4.65Z"/><path class="cls-3" d="M218.4,77.43s-.19,0-.19,0c.24,1.6-.92,3.12-4.37,3.63L211.2,68.56C215.68,72.55,217.69,74.86,218.4,77.43Z"/><path class="cls-16" d="M163.28,292.82s31.64-3.43,31.26-4.57-.39-14.48-.39-14.48,25.16-4.2,25.16-2.67,2.29,13.34,2.29,13.34L240.27,281l-.38-19.82-81.18,8.38Z"/><polygon class="cls-4" points="224.17 263.69 186.44 267.46 173.55 113.4 185.18 112.77 196.19 141.54 198.6 112.69 208.45 111.83 224.17 263.69"/><path class="cls-7" d="M194.3,284.11s-8.93,1.3-15.39,2.45c-2.25.4-4.82.77-7.63,1.07a109,109,0,0,1-13.13.61,3,3,0,0,1-.83-.19L149.65,187c-.1-.79-.18-1.57-.27-2.33-1.71-15.45-1.18-24.22-1.39-37.53,0-1.91-.07-3.93-.15-6.06a13.13,13.13,0,0,1,.38-3.6c1.49-5.93,7.1-10.07,13.24-13.16a115.68,115.68,0,0,1,10.87-4.56c1.53-.59,1.21-.33,2-1Z"/><path class="cls-7" d="M244.84,278l-6.24.58-14.34,1.33S207.54,118.47,209,119a34.68,34.68,0,0,1,7.85,4.29,40,40,0,0,1,13.63,16.63,29.54,29.54,0,0,1,1.9,6.27,2.44,2.44,0,0,1,.06.26C235,160.26,244.84,278,244.84,278Z"/><path class="cls-17" d="M199.22,151.19a1.89,1.89,0,1,1-2.05-1.71A1.89,1.89,0,0,1,199.22,151.19Z"/><path class="cls-17" d="M200.89,170.14a1.89,1.89,0,1,1-2-1.71A1.89,1.89,0,0,1,200.89,170.14Z"/><path class="cls-17" d="M202.57,189.09a1.89,1.89,0,1,1-2-1.71A1.88,1.88,0,0,1,202.57,189.09Z"/><path class="cls-17" d="M204.24,208a1.89,1.89,0,0,1-3.76.33,1.89,1.89,0,1,1,3.76-.33Z"/><path class="cls-17" d="M205.91,227a1.88,1.88,0,1,1-2-1.72A1.88,1.88,0,0,1,205.91,227Z"/><polygon class="cls-4" points="185.18 112.77 183.61 123.77 174.99 123.87 173.55 113.4 185.18 112.77"/><polygon class="cls-4" points="198.6 112.69 202.08 122.12 209.03 122.03 209.86 111.51 198.6 112.69"/><path class="cls-13" d="M165.69,66.24l1.55,7.52a2.56,2.56,0,0,0,3.58,1.81h0a2.53,2.53,0,0,0,1.42-1.76c.78-3.48,3.14-13.5,5.71-18.89,3.14-6.61,10.69-6.92,10.69-6.92l10,2.42A3.77,3.77,0,0,0,202.88,45l-.41-.74,12.91,3c2.8.64,4.55-2.1,3.69-4.84,0,0,0,0,.07,0,.51.17,7.44.34,13.71.46a3.77,3.77,0,0,0,2.46-6.69c-7.76-6.38-20.05-15.15-30.63-16.72C187.7,16.87,166,37.31,164.43,42S165.69,66.24,165.69,66.24Z"/><path class="cls-9" d="M200.56,73.17h0a1.34,1.34,0,0,1-1.58-1l-.65-3.08a1.34,1.34,0,0,1,1-1.58h0a1.34,1.34,0,0,1,1.58,1l.65,3.08A1.34,1.34,0,0,1,200.56,73.17Z"/><path class="cls-9" d="M223.59,68.53h0a1.34,1.34,0,0,1-1.58-1l-.65-3.08a1.34,1.34,0,0,1,1-1.58h0a1.34,1.34,0,0,1,1.58,1l.65,3.08A1.34,1.34,0,0,1,223.59,68.53Z"/><path class="cls-5" d="M166.15,287.43c-3.94.41-3.24.88-8,.81a3,3,0,0,1-.83-.19l-8.15-104.69c-.09-.8,4.17-7.11,4.09-7.86C156.47,186.87,169,287.13,166.15,287.43Z"/><path class="cls-15" d="M161.55,275.31,179.76,283a2.64,2.64,0,0,0,3.44-1.4h0a2.63,2.63,0,0,0-1.4-3.44l-18.22-7.66a2.62,2.62,0,0,0-3.43,1.4h0A2.64,2.64,0,0,0,161.55,275.31Z"/><rect class="cls-18" x="150.26" y="280.08" width="66.96" height="47.37" rx="9.44" transform="translate(-135.08 147.61) rotate(-32.74)"/><g class="cls-19"><path class="cls-20" d="M170,299.54c.09-.21,10.24-10.44,8.73-12.83a58.44,58.44,0,0,0-9.41-11.34l-6.72-6.22s-8.5,9.45-9,9.92c-6.4,6.62,8.3,17.22,8.3,17.22S168,304.34,170,299.54Z"/><path class="cls-20" d="M170.61,286.41l15.09,14.81c1.1,1.08,3,.76,4.24-.7h0c1.22-1.47,1.33-3.55.23-4.63l-15.09-14.81c-1.1-1.08-3-.77-4.24.7h0C169.62,283.25,169.51,285.33,170.61,286.41Z"/><path class="cls-20" d="M169.47,294.84l12.21,11.78a2.59,2.59,0,0,0,3.83-.24h0a3.1,3.1,0,0,0-.22-4.13l-12.21-11.77a2.58,2.58,0,0,0-3.83.23h0A3.1,3.1,0,0,0,169.47,294.84Z"/><path class="cls-20" d="M159.34,294.33l14.46,13.93a2.57,2.57,0,0,0,3.82-.23h0a3.1,3.1,0,0,0-.22-4.13L163,290a2.57,2.57,0,0,0-3.82.24h0A3.1,3.1,0,0,0,159.34,294.33Z"/></g><path class="cls-15" d="M169.42,296.4c.09-.19,9.92-9.36,8.46-11.5a53.37,53.37,0,0,0-9.12-10.17l-6.51-5.58s-8.24,8.47-8.69,8.9c-6.21,5.93,8.05,15.44,8.05,15.44S167.53,300.71,169.42,296.4Z"/><path class="cls-15" d="M169.92,284.76l14.74,13.15a2.64,2.64,0,0,0,3.71-.21h0a2.63,2.63,0,0,0-.21-3.7l-14.75-13.16a2.63,2.63,0,0,0-3.7.21h0A2.64,2.64,0,0,0,169.92,284.76Z"/><path class="cls-15" d="M168.93,292.19l11.84,10.56a2.64,2.64,0,0,0,3.71-.21h0a2.62,2.62,0,0,0-.22-3.7l-11.83-10.56a2.64,2.64,0,0,0-3.71.21h0A2.63,2.63,0,0,0,168.93,292.19Z"/><path class="cls-15" d="M159.12,291.73l14,12.5a2.63,2.63,0,0,0,3.7-.21h0a2.64,2.64,0,0,0-.21-3.71l-14-12.5a2.63,2.63,0,0,0-3.7.21h0A2.64,2.64,0,0,0,159.12,291.73Z"/><polygon class="cls-4" points="166.88 269.19 164.98 267.5 160.76 263.75 148.7 277.27 146.18 280.11 146.99 280.83 148.76 282.42 152.28 285.55 152.95 284.8 161.45 275.26 164.9 271.41 165.15 271.13 166.88 269.19"/><path class="cls-7" d="M163.41,144.76,154,133.51l-1.57-1.34c-.2.24-2.88,3.41-6.67,8.6-3.23,4.43-7.27,10.33-11.26,17.13-12.23,20.8-17.94,39.43-17,55.38,1.94,33.16,26.94,67.21,28,68.65l1.48-1.1,2.72-2,11.2-8.3,1.57-1.16,2.5-1.85,1.69-1.25c-.2-.28-21.38-29.26-22.86-54.51-1.13-19.24,7.95-39.31,17.71-52.12C162.92,157.8,162.35,146,163.41,144.76Z"/><path class="cls-4" d="M201.72,294.94a3.34,3.34,0,1,1-3.33-3.52A3.43,3.43,0,0,1,201.72,294.94Z"/></g></g></svg>