<svg xmlns="http://www.w3.org/2000/svg" viewBox="0 0 410.4 215.58"><defs><style>.cls-1,.cls-10,.cls-11,.cls-13,.cls-14,.cls-6,.cls-7,.cls-8,.cls-9{isolation:isolate;}.cls-1{font-size:51.3px;font-family:MicrosoftPhagsPa-Bold, Microsoft PhagsPa;letter-spacing:0.1em;}.cls-1,.cls-2{fill:#02b839;}.cls-1,.cls-10,.cls-11,.cls-13,.cls-14,.cls-4,.cls-7,.cls-8,.cls-9{font-weight:700;}.cls-10,.cls-11,.cls-13,.cls-14,.cls-3,.cls-4,.cls-7,.cls-8,.cls-9{fill:#2c2c2c;}.cls-10,.cls-11,.cls-13,.cls-14,.cls-4,.cls-7,.cls-8,.cls-9{font-size:10.8px;font-family:TrebuchetMS-Bold, Trebuchet MS;}.cls-4,.cls-8{letter-spacing:0.09em;}.cls-5{fill:#4f4f4f;}.cls-7{letter-spacing:-0.02em;}.cls-9{letter-spacing:0.09em;}.cls-10{letter-spacing:-0.06em;}.cls-11{letter-spacing:0.09em;}.cls-12{letter-spacing:0.03em;}.cls-13{letter-spacing:0.03em;}.cls-14{letter-spacing:0.05em;}</style></defs><title>title</title><g id="Layer_2" data-name="Layer 2"><g id="Layer_1-2" data-name="Layer 1"><g id="Objects"><text class="cls-1" transform="translate(46.31 153.64)">LANGUAGE</text><path class="cls-2" d="M54.76,97.59a8.52,8.52,0,0,0-.09-1.24L57,93.46l-.68-1.18-.41-.7-.68-1.18-3.68.6a8.85,8.85,0,0,0-2.15-1.24l-1.32-3.48H44.58l-1.32,3.48A9,9,0,0,0,41.11,91l-3.68-.6-.68,1.18-.41.7-.68,1.18L38,96.35a7.93,7.93,0,0,0,0,2.48l-2.37,2.87.68,1.19.41.7.68,1.18,3.68-.6a8.5,8.5,0,0,0,2.15,1.23l1.32,3.5h3.53l1.32-3.49a8.5,8.5,0,0,0,2.15-1.23l3.68.6.68-1.18.41-.7.68-1.19-2.36-2.88A8.62,8.62,0,0,0,54.76,97.59Zm-8.42,4.25a4.25,4.25,0,1,1,4.25-4.25,4.25,4.25,0,0,1-4.25,4.25Z"/><path class="cls-2" d="M63.4,85.26a4.49,4.49,0,0,0-.06-.73l1.39-1.73-.4-.69-.24-.41-.4-.69-2.16.35a4.94,4.94,0,0,0-1.26-.73l-.77-2H57.43l-.73,2.08a5.05,5.05,0,0,0-1.25.73l-2.16-.35-.41.69-.23.41-.45.65,1.39,1.69a4.59,4.59,0,0,0-.06.73,4.4,4.4,0,0,0,.06.73L52.2,87.68l.41.69.23.41.4.69,2.16-.35a5.67,5.67,0,0,0,1.26.73l.77,2H59.5l.8-2a5.11,5.11,0,0,0,1.26-.73l2.16.35.4-.69.24-.41.4-.69L63.37,86A5.94,5.94,0,0,0,63.4,85.26Zm-4.9,2.48A2.49,2.49,0,1,1,61,85.25h0a2.48,2.48,0,0,1-2.48,2.48Z"/><path class="cls-3" d="M391.39,85.68,389,88.57l.69,1.18.39.7.69,1.18,3.69-.6a8.48,8.48,0,0,0,2.14,1.24l1.31,3.48h3.54l1.32-3.48A8.85,8.85,0,0,0,405,91l3.69.6.67-1.18.41-.7.68-1.18L408,85.68a7.37,7.37,0,0,0,0-2.48l2.37-2.89-.68-1.18-.41-.69-.71-1.19-3.69.6a8.44,8.44,0,0,0-2.14-1.23l-1.33-3.49h-3.53l-1.32,3.49a8.15,8.15,0,0,0-2.14,1.23l-3.69-.6-.68,1.19-.4.69L389,80.31l2.36,2.89a8.59,8.59,0,0,0,0,2.48Zm4.08-1.24a4.25,4.25,0,1,1,4.25,4.25,4.25,4.25,0,0,1-4.25-4.25Z"/><path class="cls-3" d="M382.72,72.84l-1.39,1.69.4.69.24.41.4.69,2.16-.35a5.05,5.05,0,0,0,1.25.73l.78,2h2.07l.77-2a4.94,4.94,0,0,0,1.26-.73l2.16.35.4-.69.23-.41.41-.69-1.39-1.69a5.1,5.1,0,0,0,0-1.46l1.39-1.69-.41-.69-.23-.41-.4-.69-2.16.35a4.94,4.94,0,0,0-1.26-.73l-.77-2h-2.07l-.78,2a5.05,5.05,0,0,0-1.25.73l-2.16-.35-.4.69-.24.41-.4.69,1.39,1.69a4.47,4.47,0,0,0,0,1.46Zm2.38-.73a2.5,2.5,0,1,1,2.49,2.49h0a2.49,2.49,0,0,1-2.49-2.49Z"/><path class="cls-2" d="M196.84,58.18c2.78,0,5-2.7,5-6.11s-.75-6.1-5-6.1-5,2.7-5,6.1S194.07,58.18,196.84,58.18Z"/><path class="cls-2" d="M206.33,67.25c-.1-5.87-.9-7.54-6.74-8.6a4.13,4.13,0,0,1-5.5,0c-5.81,1-6.63,2.7-6.73,8.41v1s1.4,2.82,9.5,2.82,9.49-2.82,9.49-2.82v-.45a2.8,2.8,0,0,1,0-.41Z"/><path class="cls-2" d="M219,58.18c2.78,0,5-2.7,5-6.11s-.74-6.1-5-6.1-5,2.7-5,6.1S216.2,58.18,219,58.18Z"/><path class="cls-2" d="M228.46,67.25c-.09-5.87-.9-7.54-6.74-8.6a4.13,4.13,0,0,1-5.5,0c-5.81,1-6.62,2.7-6.73,8.41v1s1.4,2.82,9.5,2.82,9.49-2.82,9.49-2.82v-.86Z"/><path class="cls-2" d="M241.5,58.18c2.77,0,5-2.7,5-6.11s-.74-6.1-5-6.1-5,2.7-5,6.1S238.72,58.18,241.5,58.18Z"/><path class="cls-2" d="M251,67.25c-.1-5.87-.9-7.54-6.73-8.6a4.14,4.14,0,0,1-5.51,0c-5.8,1-6.62,2.7-6.73,8.41v1s1.4,2.82,9.5,2.82S251,68.11,251,68.11v-.45a2.8,2.8,0,0,1,0-.41Z"/><polygon class="cls-2" points="157.24 10.13 144.21 22.23 138.84 14.93 135.06 17.71 143.54 29.24 160.43 13.56 157.24 10.13"/><polygon class="cls-2" points="283.3 171.45 270.27 183.56 264.92 176.26 261.13 179.04 269.6 190.58 286.5 174.89 283.3 171.45"/><polygon class="cls-3" points="283.3 168.24 270.27 180.34 264.92 173.04 261.13 175.82 269.6 187.35 286.5 171.67 283.3 168.24"/><path class="cls-2" d="M132,53.56a9.17,9.17,0,0,1-4.64-3.34c-1.13-1.8.23-2.25-.23-7.2-.42-4.56-6.7-9.47-14.34-10a19.48,19.48,0,0,0-10.8,2.5c-9.51,5.2-13.27,16.2-5.93,26.79,6.61,9.56.41,13.88.41,13.88s.24,2,4.31,4.72,9,.9,9,.9,1.65-5.85,7-5.31c3.86.57,9.28-.19,10.65-1.52s-.23-2.79.79-6.25c-3.49-.34-5.4-2-5.6-4.36,3.88.37,5.49-.86,6.59-2.22,0-.8-.11-2.49-.18-3.6,3.43-1,4.75-4.38,2.87-4.93"/><path class="cls-3" d="M133.72,57.54a9.31,9.31,0,0,1-4.64-3.33c-1.13-1.8.23-2.26-.23-7.2-.42-4.56-6.7-9.48-14.34-10a19.48,19.48,0,0,0-10.8,2.5c-9.5,5.2-13.27,16.2-5.93,26.79,6.62,9.56.41,13.88.41,13.88s.24,2,4.31,4.72,9.06.9,9.06.9,1.65-5.85,7-5.31c3.85.56,9.27-.19,10.64-1.52s-.22-2.79.8-6.25c-3.5-.34-5.4-2-5.6-4.37,3.87.38,5.48-.9,6.59-2.21,0-.8-.12-2.49-.19-3.6,3.44-1,4.75-4.38,2.87-4.93"/><path class="cls-3" d="M153,37.74A14.39,14.39,0,0,0,138.6,52v6.42a14.79,14.79,0,0,0,.54,4l-6.3,6.77,8.34-2.41A14.66,14.66,0,0,0,153,72.61a14.39,14.39,0,0,0,14.4-14.22V52A14.39,14.39,0,0,0,153,37.74Z"/><path class="cls-2" d="M153.78,57.87l-2-1.95h0a13.55,13.55,0,0,0,2.9-5.09H157v-1.6h-5.47V47.7H150v1.53H144.5v1.56h8.72A12.33,12.33,0,0,1,150.74,55a12.63,12.63,0,0,1-1.8-2.61h-1.56a13.88,13.88,0,0,0,2.33,3.55l-3.91,3.92,1.11,1.11L150.8,57l2.43,2.43.6-1.6Zm4.4-4H156.6l-3.51,9.37h1.56l.9-2.34h3.7l.9,2.34h1.55Zm-2.05,5.49L157.4,56l1.26,3.38Z"/><rect class="cls-2" x="200.55" y="170.89" width="51.16" height="22.3" rx="9.99"/><polygon class="cls-2" points="223.69 192.07 222.27 200.92 218.65 193.18 223.69 192.07"/><text class="cls-4" transform="translate(207.72 186.1)">HELLO</text><path class="cls-3" d="M271.17,54.7,269.5,53h0a11.4,11.4,0,0,0,2.44-4.29h1.93V47.41h-4.59V46.09H268v1.32h-4.6v1.31h7.34a10.3,10.3,0,0,1-2.09,3.48A9.94,9.94,0,0,1,267.11,50h-1.32a11.88,11.88,0,0,0,2,3l-3.34,3.31.9.9L268.62,54l2.05,2,.5-1.34Z"/><rect class="cls-3" x="267.02" y="51.48" width="16.08" height="1.34" transform="translate(151.95 303.59) rotate(-74.65)"/><path class="cls-3" d="M282.33,47.7h-1.8l-4,9h1.8l1-1.8h4.2l1,1.8h1.8ZM280,53.1l1.43-4.76,1.44,4.76Z"/><path class="cls-3" d="M136.85,209.57l-2-2h0a13.5,13.5,0,0,0,2.89-5.09h2.29V201h-5.46v-1.56H133V201h-5.46v1.55h8.71a12.41,12.41,0,0,1-2.47,4.19,12.63,12.63,0,0,1-1.8-2.61H130.5a13.51,13.51,0,0,0,2.32,3.55l-4,3.87,1.1,1.11,3.91-3.91,2.42,2.43.6-1.59Z"/><rect class="cls-3" x="130.4" y="205.42" width="18.99" height="1.58" transform="translate(-95.71 287.34) rotate(-74.85)"/><path class="cls-3" d="M150.09,201.6H148l-4.72,11.7h2.1l1.18-4.5h5l1.18,4.5h2.09Zm-2.75,5.4,1.7-4.5,1.71,4.5Z"/><path class="cls-2" d="M361.48,181.8c0,8.75-7.2,15.3-15.91,15.3h-7.2a16.18,16.18,0,0,1-4.44-.43l-7.57,7.1,2.7-9.29A15.14,15.14,0,0,1,322.47,182a15.58,15.58,0,0,1,15.9-15.46h7.2C354.32,166.5,361.48,173,361.48,181.8Z"/><path class="cls-3" d="M331.53,182.6a1.58,1.58,0,1,1,1.58,1.58A1.57,1.57,0,0,1,331.53,182.6Z"/><path class="cls-3" d="M340.42,182.6a1.57,1.57,0,1,1,3.14-.23v.23a1.57,1.57,0,0,1-3.14.24A1,1,0,0,1,340.42,182.6Z"/><path class="cls-3" d="M349.3,182.6a1.57,1.57,0,1,1,3.14-.23.88.88,0,0,1,0,.23,1.57,1.57,0,0,1-3.14.24A1,1,0,0,1,349.3,182.6Z"/><polygon class="cls-2" points="357.72 83.01 327.77 83.01 327.77 53.02 334.68 43.45 357.72 43.45 357.72 83.01"/><polygon class="cls-2" points="327.77 53.08 334.8 53.08 334.8 43.45 327.77 53.08"/><rect class="cls-2" x="332.1" y="61.18" width="23.4" height="0.9"/><polygon class="cls-2" points="355.63 55.78 331.51 55.78 331.51 55.78 355.63 55.78 355.63 55.78"/><rect class="cls-2" x="332.1" y="65.68" width="23.4" height="0.9"/><rect class="cls-2" x="332.1" y="70.18" width="23.4" height="0.9"/><rect class="cls-2" x="332.1" y="74.68" width="23.4" height="0.9"/><rect class="cls-2" x="332.1" y="78.28" width="23.4" height="0.9"/><polygon class="cls-3" points="350.95 86.4 321 86.4 321 56.41 327.92 46.86 350.95 46.86 350.95 86.4"/><polygon class="cls-5" points="321 56.68 328.5 56.68 328.5 46.86 321 56.68"/><polygon class="cls-5" points="348.59 65.68 324.48 65.68 324.48 65.68 348.59 65.68 348.59 65.68"/><rect class="cls-5" x="325.8" y="60.28" width="22.5" height="0.9"/><polygon class="cls-5" points="348.59 69.28 324.48 69.28 324.48 69.28 348.59 69.28 348.59 69.28"/><rect class="cls-5" x="325.8" y="72.88" width="22.5" height="1.8"/><rect class="cls-5" x="325.8" y="77.38" width="22.5" height="0.9"/><polygon class="cls-5" points="348.3 80.98 325.8 80.98 325.8 80.98 348.3 80.98 348.3 80.98"/><rect class="cls-2" x="52.98" y="188.86" width="5.4" height="11.43" transform="translate(-1.22 0.35) rotate(-0.36)"/><polygon class="cls-2" points="55.27 190.75 55.49 194.8 55.3 198.54 79.38 209.62 79.29 194.65 79.19 179.07 55.27 190.75"/><path class="cls-2" d="M83.2,200.23a1.71,1.71,0,0,1-.32,0,1.26,1.26,0,0,1-.9-1.53,17.53,17.53,0,0,0,.42-4,11.94,11.94,0,0,0-.81-4.42,1.25,1.25,0,0,1,2.34-.86,14.44,14.44,0,0,1,1,5.28,19.22,19.22,0,0,1-.5,4.59A1.24,1.24,0,0,1,83.2,200.23Z"/><path class="cls-2" d="M86.62,205a1.25,1.25,0,0,1-.85-.32,1.26,1.26,0,0,1-.11-1.78l0,0s1.74-2.14,1.7-7.9-1.88-8.32-1.88-8.34a1.26,1.26,0,0,1,.24-1.75,1.24,1.24,0,0,1,1.74.22c.1.12,2.36,3.1,2.4,9.9s-2.1,9.29-2.35,9.58A1.21,1.21,0,0,1,86.62,205Z"/><rect class="cls-3" x="56" y="190.88" width="5.4" height="11.43" transform="translate(-1.23 0.37) rotate(-0.36)"/><polygon class="cls-3" points="58.28 192.76 58.51 196.81 58.32 200.56 82.39 211.63 82.3 196.66 82.21 181.07 58.28 192.76"/><path class="cls-3" d="M86.21,202.23a.86.86,0,0,1-.32,0,1.25,1.25,0,0,1-.9-1.52,16.94,16.94,0,0,0,.41-4,12.23,12.23,0,0,0-.8-4.43,1.25,1.25,0,1,1,2.34-.9,14.43,14.43,0,0,1,1,5.28,19.21,19.21,0,0,1-.49,4.59A1.24,1.24,0,0,1,86.21,202.23Z"/><path class="cls-3" d="M89.63,207a1.28,1.28,0,0,1-.85-.32,1.24,1.24,0,0,1-.13-1.75l0-.05s1.74-2.15,1.71-7.9-1.87-8.36-1.89-8.39a1.26,1.26,0,0,1,.35-1.74,1.23,1.23,0,0,1,1.63.22c.09.12,2.36,3.1,2.4,9.9s-2.1,9.31-2.34,9.58A1.22,1.22,0,0,1,89.63,207Z"/><path class="cls-3" d="M88.15,35.05h-1.8v-1.8a1.93,1.93,0,1,0-3.86,0h0v1.8h-1.8a1.93,1.93,0,0,0,0,3.85h1.8v1.8a1.94,1.94,0,0,0,1.92,1.94h0a2,2,0,0,0,1.94-1.88V39h1.8a1.93,1.93,0,1,0,0-3.85Z"/><path class="cls-3" d="M380.55,186.7h-1.8v-1.8a1.93,1.93,0,0,0-3.86,0v1.8h-1.8a1.94,1.94,0,0,0-1.93,1.92,1.92,1.92,0,0,0,1.92,1.93h1.81v1.8a1.94,1.94,0,0,0,1.91,1.94,1.89,1.89,0,0,0,.53-.08,1.91,1.91,0,0,0,1.41-1.8v-1.8h1.8a1.88,1.88,0,0,0,.53-.07,2,2,0,0,0,1.4-1.85,1.92,1.92,0,0,0-1.86-2Z"/><path class="cls-2" d="M312.18,65.4h-1.8V63.6a1.93,1.93,0,1,0-3.85,0v1.8h-1.8a1.93,1.93,0,0,0,0,3.85h1.8v1.8A1.92,1.92,0,0,0,308.45,73h0a1.88,1.88,0,0,0,.53-.07,2,2,0,0,0,1.36-1.81V69.3h1.8a1.89,1.89,0,0,0,.53-.08,1.93,1.93,0,0,0-.51-3.78Z"/><path class="cls-2" d="M43.43,188.17h-1.8v-1.8a1.92,1.92,0,0,0-1.91-1.94h0a1.94,1.94,0,0,0-1.92,1.87v1.8H36A1.93,1.93,0,1,0,36,192h1.8v1.8a1.93,1.93,0,0,0,1.92,1.94h0a2.41,2.41,0,0,0,.53-.07,1.93,1.93,0,0,0,1.4-1.85V192h1.8a1.81,1.81,0,0,0,.52-.07,1.93,1.93,0,0,0-.51-3.79Z"/><path class="cls-2" d="M191.1,192.6h-1.8v-1.8a1.93,1.93,0,1,0-3.85,0h0v1.8h-1.8a1.93,1.93,0,0,0,0,3.86h1.8v1.8a1.93,1.93,0,0,0,1.91,1.94,2.33,2.33,0,0,0,.53-.07,1.92,1.92,0,0,0,1.41-1.8v-1.8h1.8a2,2,0,0,0,.53-.08,1.93,1.93,0,0,0-.52-3.78Z"/><path class="cls-2" d="M374.88,78.3h-1.8V76.5a1.93,1.93,0,1,0-3.85,0h0v1.8h-1.81a1.94,1.94,0,0,0,0,3.86h1.81V84a1.92,1.92,0,0,0,1.91,1.94h0a2.33,2.33,0,0,0,.53-.07,2,2,0,0,0,1.41-1.8v-1.8h1.8a2,2,0,0,0,.53-.08,1.92,1.92,0,0,0,1.33-2.37,1.94,1.94,0,0,0-1.85-1.41Z"/><path class="cls-3" d="M111.1,167.22a4.93,4.93,0,0,0-2.86-3.75,3.81,3.81,0,0,0-4.1.26c-1.18.79-1.89,2.21-2.19,2.16s-1-1.66-2.45-2.29a4.8,4.8,0,0,0-3.15-.2,5.18,5.18,0,0,0-3.65,4c-1,4.95,5,8.9,8.63,11.14a1.26,1.26,0,0,0,1.39.16l.17-.09C106.72,176.18,111.87,172.71,111.1,167.22Z"/><path class="cls-3" d="M14.07,100.71a.74.74,0,0,1-.76-.74h0V83c0-7.41,6.36-13.44,14.18-13.44H87.07a.76.76,0,0,1,0,1.51H27.49c-7,0-12.68,5.4-12.68,11.93V100a.73.73,0,0,1-.73.75Z"/><path class="cls-3" d="M87.91,65.7H86.4a.75.75,0,0,1-.16-1.5.43.43,0,0,1,.16,0h1.5a.75.75,0,1,1,.17,1.5h-.16Z"/><path class="cls-3" d="M20.76,95.25A.75.75,0,0,1,20,94.5v-3a.76.76,0,0,1,1.51,0h0v3A.76.76,0,0,1,20.76,95.25Zm0-6.89a.76.76,0,0,1-.75-.75v-3a.76.76,0,1,1,1.51,0h0v3A.76.76,0,0,1,20.76,88.36Zm0-6.9a.76.76,0,0,1-.75-.75v-3a.76.76,0,0,1,1.51,0h0v3a.76.76,0,0,1-.76.75Zm.59-6.83a.89.89,0,0,1-.23,0,.75.75,0,0,1-.48-.9A12.84,12.84,0,0,1,22,70.89a.77.77,0,0,1,1-.25.75.75,0,0,1,.24,1h0a12.16,12.16,0,0,0-1.16,2.51A.74.74,0,0,1,21.35,74.63ZM25.14,69a.75.75,0,0,1-.74-.77.73.73,0,0,1,.25-.55,13.81,13.81,0,0,1,2.57-1.8.74.74,0,0,1,1,.29h0a.75.75,0,0,1-.27,1l-.06,0a12.39,12.39,0,0,0-2.29,1.57A.75.75,0,0,1,25.14,69Zm6.13-3a.75.75,0,0,1-.16-1.49,14.79,14.79,0,0,1,3-.3h.13a.76.76,0,1,1,0,1.51h-.13a13.66,13.66,0,0,0-2.7.27Zm51.2-.28h-3a.75.75,0,0,1-.83-.67.76.76,0,0,1,.67-.83.43.43,0,0,1,.16,0h3a.75.75,0,0,1,.16,1.5Zm-6.87,0h-3a.75.75,0,0,1,0-1.5h3a.75.75,0,0,1,0,1.5Zm-6.89,0h-3a.75.75,0,0,1-.67-.83.76.76,0,0,1,.67-.67h3a.75.75,0,0,1,.67.83.76.76,0,0,1-.67.67Zm-6.9,0h-3a.75.75,0,1,1-.16-1.5.43.43,0,0,1,.16,0h3a.75.75,0,0,1,.66.83.74.74,0,0,1-.66.67Zm-6.91,0h-3a.75.75,0,0,1-.16-1.5.43.43,0,0,1,.16,0h3a.75.75,0,0,1,.16,1.5ZM48,65.7H45a.75.75,0,0,1-.16-1.5.43.43,0,0,1,.16,0h3a.75.75,0,1,1,.17,1.5H48Zm-6.9,0h-3A.75.75,0,0,1,38,64.2a.43.43,0,0,1,.16,0h3a.75.75,0,1,1,.17,1.5h-.15Z"/><path class="cls-3" d="M20.76,100.71A.76.76,0,0,1,20,100V98.45a.76.76,0,0,1,1.51,0V100A.76.76,0,0,1,20.76,100.71Z"/><path class="cls-3" d="M89.74,70.33a2.7,2.7,0,1,1-2.7-2.7A2.7,2.7,0,0,1,89.74,70.33Z"/><path class="cls-3" d="M395.1,165.76a2.7,2.7,0,1,1-2.7-2.7A2.7,2.7,0,0,1,395.1,165.76Z"/><path class="cls-3" d="M156.38,94.19H127.25a.75.75,0,0,1-.75-.76.74.74,0,0,1,.75-.75h29.13a.75.75,0,0,1,.76.75A.76.76,0,0,1,156.38,94.19Z"/><path class="cls-3" d="M159.06,93.43a2.7,2.7,0,1,1-2.7-2.7A2.7,2.7,0,0,1,159.06,93.43Z"/><path class="cls-3" d="M129.92,93.43a2.7,2.7,0,1,1-2.7-2.7A2.7,2.7,0,0,1,129.92,93.43Z"/><path class="cls-3" d="M180.15,78.37a2.7,2.7,0,1,1-2.7-2.7A2.7,2.7,0,0,1,180.15,78.37Z"/><path class="cls-3" d="M263.54,78.37a2.7,2.7,0,1,1-2.7-2.7A2.7,2.7,0,0,1,263.54,78.37Z"/><path class="cls-3" d="M258.17,79.36h-3a1,1,0,1,1-.19-2,.6.6,0,0,1,.19,0h3a1,1,0,1,1,.19,2A.6.6,0,0,1,258.17,79.36Zm-7,0h-3a1,1,0,0,1,0-2h3a1,1,0,0,1,.19,2,.6.6,0,0,1-.19,0Zm-7,0h-3a1,1,0,1,1-.19-2,.61.61,0,0,1,.19,0h3a1,1,0,0,1,.9,1.1A1,1,0,0,1,244.12,79.36Zm-7,0h-3a1,1,0,1,1-.19-2,.6.6,0,0,1,.19,0h3a1,1,0,1,1,.19,2A.6.6,0,0,1,237.08,79.36Zm-7,0h-3a1,1,0,0,1,0-2h3a1,1,0,1,1,.19,2A.61.61,0,0,1,230.05,79.36Zm-7,0h-3a1,1,0,0,1-.19-2,.6.6,0,0,1,.19,0h3a1,1,0,0,1,0,2Zm-7,0h-3a1,1,0,1,1-.19-2,.6.6,0,0,1,.19,0h3a1,1,0,1,1,.19,2,.61.61,0,0,1-.19,0Zm-7,0h-3a1,1,0,0,1,0-2h3a1,1,0,1,1,.19,2A.6.6,0,0,1,209,79.36Zm-7,0h-3a1,1,0,0,1-.46-2,1.19,1.19,0,0,1,.46,0h3a1,1,0,0,1,0,2Zm-7,0h-3a1,1,0,0,1,0-2h3a1,1,0,0,1,.19,2A.6.6,0,0,1,194.89,79.36Zm-7,0h-3a1,1,0,0,1,0-2h3a1,1,0,1,1,.19,2A.6.6,0,0,1,187.86,79.36Zm-7,0h-3a1,1,0,1,1-.19-2,.6.6,0,0,1,.19,0h3a1,1,0,0,1,0,2Z"/><path class="cls-3" d="M241.43,205.94a2.7,2.7,0,1,1-2.7-2.7A2.7,2.7,0,0,1,241.43,205.94Z"/><path class="cls-3" d="M113.85,191.88a2.7,2.7,0,1,1-2.7-2.7A2.7,2.7,0,0,1,113.85,191.88Z"/><path class="cls-3" d="M240.09,207.2h-64.8a7.79,7.79,0,0,1-7.78-7.78,6.3,6.3,0,0,0-6.3-6.3h-49.7a.76.76,0,0,1-.16-1.51h49.88A7.8,7.8,0,0,1,169,199.4a6.3,6.3,0,0,0,6.3,6.3h64.8a.76.76,0,0,1,0,1.51Z"/><path class="cls-3" d="M392.8,165.51a.76.76,0,0,1-.76-.75V116.37a23.21,23.21,0,0,0-23.19-23.19H319.29a24.72,24.72,0,0,1-24.69-24.7V55.25a.75.75,0,0,1,1.5,0V68.48a23.22,23.22,0,0,0,23.19,23.2h49.56a24.71,24.71,0,0,1,24.69,24.69v48.39A.75.75,0,0,1,392.8,165.51Z"/><path class="cls-3" d="M399.83,174.55a.75.75,0,0,1-.76-.75V125.41a.76.76,0,0,1,1.51,0h0V173.8A.75.75,0,0,1,399.83,174.55Z"/><path class="cls-3" d="M5.4,143.66A2.7,2.7,0,1,1,2.7,141,2.7,2.7,0,0,1,5.4,143.66Z"/><path class="cls-3" d="M3,143.41a.76.76,0,0,1-.75-.76V94.27a.76.76,0,1,1,1.51,0v48.38A.76.76,0,0,1,3,143.41Z"/><path class="cls-3" d="M10.38,121.56a2.7,2.7,0,1,1-2.7-2.7A2.7,2.7,0,0,1,10.38,121.56Z"/><path class="cls-3" d="M8,121.3a.76.76,0,0,1-.76-.74V72.16a.76.76,0,0,1,1.51,0V120.6A.75.75,0,0,1,8,121.3Z"/><path class="cls-3" d="M204.21,39.46a11.48,11.48,0,0,1-1.33-.05.75.75,0,0,1-.77-.74.76.76,0,0,1,.74-.77H203a10.1,10.1,0,0,0,1.23,0c.41,0,1.11,0,1.66-.07a.73.73,0,0,1,.81.65v0a.74.74,0,0,1-.66.82h0A12.21,12.21,0,0,1,204.21,39.46ZM199,38.7h-.21a19.54,19.54,0,0,1-2.93-1.1.73.73,0,0,1-.36-1,.74.74,0,0,1,1-.36,18.19,18.19,0,0,0,2.7,1,.76.76,0,0,1-.2,1.48Zm10.89-.13a.76.76,0,0,1-.75-.76.75.75,0,0,1,.53-.72,19,19,0,0,0,2.7-1.08.75.75,0,0,1,.67,1.35h0a18.71,18.71,0,0,1-2.9,1.17.94.94,0,0,1-.24.06Zm-17.15-3a.78.78,0,0,1-.45-.15,21.07,21.07,0,0,1-2.34-2.08.75.75,0,0,1,0-1.06h0a.74.74,0,0,1,1.06,0,19.75,19.75,0,0,0,2.16,1.92.75.75,0,0,1,.15,1h0a.75.75,0,0,1-.57.35Zm23.33-.3a.78.78,0,0,1-.6-.28.75.75,0,0,1,.12-1.06,17.93,17.93,0,0,0,2.11-2,.76.76,0,0,1,1.12,1,20.15,20.15,0,0,1-2.29,2.14.79.79,0,0,1-.46.19Zm-28-4.87a.76.76,0,0,1-.65-.36A18.64,18.64,0,0,1,186,27.27a.75.75,0,0,1,.39-1h0a.75.75,0,0,1,1,.41h0a17.7,17.7,0,0,0,1.32,2.56.77.77,0,0,1-.24,1,.84.84,0,0,1-.4.14Zm32.6-.41a.7.7,0,0,1-.38-.11.73.73,0,0,1-.28-1v0a17.35,17.35,0,0,0,1.25-2.61.75.75,0,0,1,1.41.54h0a18.25,18.25,0,0,1-1.35,2.82.76.76,0,0,1-.65.41Zm-35.1-6.11a.76.76,0,0,1-.75-.61,19.19,19.19,0,0,1-.32-3.12.76.76,0,0,1,1.51-.05v0a17.48,17.48,0,0,0,.3,2.88.76.76,0,0,1-.59.89h0ZM223,23.4h-.13a.75.75,0,0,1-.63-.85.11.11,0,0,1,0-.05,18.43,18.43,0,0,0,.22-2.88.76.76,0,0,1,1.51-.16v.16a19.33,19.33,0,0,1-.25,3.13A.74.74,0,0,1,223,23.4ZM185.5,16.9h-.14a.75.75,0,0,1-.61-.85.43.43,0,0,1,0-.05,20,20,0,0,1,.82-3,.76.76,0,0,1,1.47.36.39.39,0,0,1-.06.15,17.92,17.92,0,0,0-.74,2.79.76.76,0,0,1-.75.66Zm37.3-.45a.75.75,0,0,1-.74-.6,18,18,0,0,0-.83-2.77.76.76,0,0,1,.44-1,.75.75,0,0,1,1,.44h0a19.54,19.54,0,0,1,.9,3,.76.76,0,0,1-.58.9ZM188,10.38a.76.76,0,0,1-.64-1.15,19.9,19.9,0,0,1,1.85-2.52.76.76,0,0,1,1.23.88l-.09.11A17.55,17.55,0,0,0,188.68,10a.76.76,0,0,1-.64.4ZM220.1,10a.77.77,0,0,1-.63-.33,16.49,16.49,0,0,0-1.8-2.29.78.78,0,0,1,1.19-1,19,19,0,0,1,1.92,2.47.76.76,0,0,1-.22,1l-.06,0a.79.79,0,0,1-.4.13ZM192.75,5.25a.75.75,0,0,1-.46-1.35h0a20.3,20.3,0,0,1,2.64-1.68.75.75,0,1,1,.71,1.33,17.39,17.39,0,0,0-2.44,1.56A.8.8,0,0,1,192.75,5.25ZM215.25,5a.71.71,0,0,1-.44-.15,19.76,19.76,0,0,0-2.41-1.49.77.77,0,0,1-.34-1,.75.75,0,0,1,1-.33h0a20.53,20.53,0,0,1,2.7,1.62.76.76,0,0,1,.16,1.06.75.75,0,0,1-.61.31ZM199,2.14a.74.74,0,0,1-.72-.54.75.75,0,0,1,.51-.9,19,19,0,0,1,3.07-.64.74.74,0,0,1,.84.64h0a.75.75,0,0,1-.65.84h0a18,18,0,0,0-2.83.57A.75.75,0,0,1,199,2.14Zm9.9-.11a.61.61,0,0,1-.19,0,18.28,18.28,0,0,0-2.85-.5A.75.75,0,0,1,205.2.7h0A.77.77,0,0,1,206,0a20.4,20.4,0,0,1,3.09.54A.76.76,0,0,1,208.93,2Z"/><path class="cls-3" d="M224.3,39.46a11.56,11.56,0,0,1-1.32-.05.76.76,0,1,1,0-1.51h.14a10.1,10.1,0,0,0,1.23,0c.42,0,1.1,0,1.66-.07a.75.75,0,0,1,.82.67h0a.75.75,0,0,1-.68.82A12.21,12.21,0,0,1,224.3,39.46Zm-5.23-.76h-.21a19.54,19.54,0,0,1-2.93-1.1.73.73,0,0,1-.36-1,.74.74,0,0,1,1-.36,18.19,18.19,0,0,0,2.7,1,.77.77,0,0,1,.49,1,.76.76,0,0,1-.7.53ZM230,38.57a.76.76,0,0,1-.75-.76.75.75,0,0,1,.52-.72,17.09,17.09,0,0,0,2.7-1.08.76.76,0,0,1,.68,1.35,19.23,19.23,0,0,1-2.91,1.17,1.05,1.05,0,0,1-.24.06Zm-17.1-3a.81.81,0,0,1-.46-.15,21,21,0,0,1-2.33-2.08.75.75,0,0,1,0-1.06.75.75,0,0,1,1.06,0h0a18.84,18.84,0,0,0,2.16,1.93.75.75,0,0,1,.16,1A.74.74,0,0,1,212.86,35.58Zm23.32-.3a.76.76,0,0,1-.59-.28.75.75,0,0,1,.12-1.06,18.8,18.8,0,0,0,2.11-2,.77.77,0,0,1,1.07,0,.76.76,0,0,1,0,1.06,18.54,18.54,0,0,1-2.28,2.15.79.79,0,0,1-.52.14Zm-28-4.87a.74.74,0,0,1-.64-.36,18.7,18.7,0,0,1-1.43-2.78.74.74,0,0,1,.38-1h0a.75.75,0,0,1,1,.4h0a18.88,18.88,0,0,0,1.32,2.57.76.76,0,0,1-.24,1,.77.77,0,0,1-.44.14Zm32.6-.41a.76.76,0,0,1-.38-.11.74.74,0,0,1-.27-1h0a18.43,18.43,0,0,0,1.26-2.61.76.76,0,0,1,1-.36.77.77,0,0,1,.4.9,20.34,20.34,0,0,1-1.36,2.82.77.77,0,0,1-.7.41Zm-35.1-6.11a.76.76,0,0,1-.74-.61,19.19,19.19,0,0,1-.32-3.12.75.75,0,1,1,1.5-.16.43.43,0,0,1,0,.16,19.8,19.8,0,0,0,.3,2.88.74.74,0,0,1-.55.89h-.06Zm37.41-.49H243a.75.75,0,0,1-.64-.86v0a18.43,18.43,0,0,0,.22-2.88.76.76,0,1,1,1.51,0h0a20.52,20.52,0,0,1-.24,3.13A.76.76,0,0,1,243.06,23.4ZM205.6,16.9h-.15a.75.75,0,0,1-.6-.88v0a20,20,0,0,1,.82-3,.76.76,0,0,1,.93-.52.75.75,0,0,1,.52.93l0,.1a18.83,18.83,0,0,0-.76,2.79.75.75,0,0,1-.73.66Zm37.28-.45a.77.77,0,0,1-.74-.6,19.1,19.1,0,0,0-.81-2.77.76.76,0,1,1,1.35-.68.58.58,0,0,1,0,.14,19.21,19.21,0,0,1,.9,3,.74.74,0,0,1-.58.89h-.17Zm-34.75-6.07a.7.7,0,0,1-.4-.12.75.75,0,0,1-.24-1,19.9,19.9,0,0,1,1.85-2.52.75.75,0,1,1,1.14,1,18.68,18.68,0,0,0-1.68,2.36.76.76,0,0,1-.67.36ZM240.2,10a.73.73,0,0,1-.63-.33,18.89,18.89,0,0,0-1.8-2.29.75.75,0,1,1,1.06-1.07l.06.06a19.84,19.84,0,0,1,1.91,2.47.77.77,0,0,1-.21,1.05.88.88,0,0,1-.39.15ZM212.84,5.21a.76.76,0,0,1-.6-.29.74.74,0,0,1,.16-1A18.14,18.14,0,0,1,215,2.22a.75.75,0,0,1,.82,1.26l-.12.07a17.39,17.39,0,0,0-2.44,1.56.81.81,0,0,1-.46.14ZM235.34,5a.77.77,0,0,1-.44-.14,20.07,20.07,0,0,0-2.47-1.5.74.74,0,0,1-.34-1h0a.75.75,0,0,1,1-.3,20.4,20.4,0,0,1,2.7,1.6A.76.76,0,0,1,235.36,5ZM219.1,2.14a.75.75,0,0,1-.2-1.48A19.83,19.83,0,0,1,222,.06a.74.74,0,0,1,.83.65.76.76,0,0,1-.66.84h0a19.56,19.56,0,0,0-2.84.57A.65.65,0,0,1,219.1,2.14ZM229,2a.54.54,0,0,1-.18,0,18.4,18.4,0,0,0-2.86-.5.74.74,0,0,1-.67-.81h0a.76.76,0,0,1,.82-.68,19.93,19.93,0,0,1,3.07.54.75.75,0,0,1,.55.9A.76.76,0,0,1,229,2Z"/><path class="cls-3" d="M58.36,210.87H57.8c-.43,0-.76-.63-.76-1.05s.34-1,.76-1h0l.56.29c.79,0,1.6.14,2.43.11a.82.82,0,0,1,.77.8.77.77,0,0,1-.73.81C60,210.82,59.17,210.87,58.36,210.87Zm-4.58-.15h-.05c-1-.07-2-.16-3-.28a.76.76,0,0,1-.66-.84.77.77,0,0,1,.84-.66c1,.11,2,.2,3,.28a.75.75,0,0,1,.64.85A.76.76,0,0,1,53.78,210.72Zm11-.12a.75.75,0,0,1,0-1.5c.81-.06,1.63-.14,2.48-.23a.74.74,0,0,1,.8.7.76.76,0,0,1-.65.8c-.9.09-1.69.17-2.52.23Zm-18-.78h-.14c-1-.2-2-.43-3-.68a.76.76,0,0,1-.6-.89.75.75,0,0,1,.88-.6l.1,0c.9.24,1.9.47,2.88.66a.75.75,0,0,1,.6.87v0A.77.77,0,0,1,46.8,209.82Zm-6.72-1.92a.8.8,0,0,1-.27,0c-1-.37-1.92-.77-2.83-1.2a.76.76,0,0,1,.52-1.42l.13.06q1.35.62,2.7,1.14a.76.76,0,0,1-.26,1.46Zm-6.3-3.09a.72.72,0,0,1-.4-.12,24.5,24.5,0,0,1-2.53-1.8.76.76,0,0,1,0-1.07.74.74,0,0,1,.86-.12,27.43,27.43,0,0,0,2.45,1.7.77.77,0,0,1,.24,1,.8.8,0,0,1-.65.35Zm-5.46-4.4a.81.81,0,0,1-.54-.24c-.71-.74-1.4-1.52-2-2.32a.76.76,0,0,1,1.19-.94h0a29.1,29.1,0,0,0,1.92,2.22.73.73,0,0,1,0,1.05h0a.76.76,0,0,1-.53.23Zm-4.23-5.6a.74.74,0,0,1-.64-.38,25.07,25.07,0,0,1-1.4-2.73.75.75,0,0,1,.3-1,.76.76,0,0,1,1,.3,1.17,1.17,0,0,1,.05.11,24.61,24.61,0,0,0,1.33,2.61.78.78,0,0,1-.28,1,.85.85,0,0,1-.38.09Zm-2.7-6.47a.76.76,0,0,1-.73-.55,19.48,19.48,0,0,1-.63-3.11.74.74,0,0,1,.67-.81h0a.75.75,0,0,1,.82.65v0a18.21,18.21,0,0,0,.58,2.83.73.73,0,0,1-.52.9.58.58,0,0,1-.21.07Z"/><path class="cls-3" d="M123.56,184.12a.59.59,0,0,1-.29-.07.74.74,0,0,1-.4-1h0l1.18-2.78a.75.75,0,0,1,1.38.59l-1.18,2.78A.74.74,0,0,1,123.56,184.12Zm2.7-6.48a.72.72,0,0,1-.29-.06.76.76,0,0,1-.4-1h0l1.18-2.78a.75.75,0,0,1,1.38.59L127,177.18a.74.74,0,0,1-.65.46Zm2.7-6.48a.94.94,0,0,1-.29-.06.76.76,0,0,1-.4-1h0l1.18-2.77a.75.75,0,1,1,1.44.44.35.35,0,0,1-.06.14l-1.17,2.78a.78.78,0,0,1-.63.46Z"/><path class="cls-3" d="M133.6,184.12a.72.72,0,0,1-.28-.07.74.74,0,0,1-.41-1h0l1.18-2.78a.76.76,0,0,1,1-.3.77.77,0,0,1,.36.89l-1.17,2.78A.77.77,0,0,1,133.6,184.12Zm2.75-6.48a1.07,1.07,0,0,1-.3-.06.76.76,0,0,1-.4-1h0l1.18-2.78a.75.75,0,0,1,1.38.59L137,177.18a.78.78,0,0,1-.69.46Zm2.7-6.48a1.07,1.07,0,0,1-.3-.06.75.75,0,0,1-.4-1h0l1.17-2.77a.75.75,0,1,1,1.44.44.35.35,0,0,1-.06.14l-1.17,2.78a.77.77,0,0,1-.65.46Z"/><path class="cls-3" d="M143.66,184.12a.78.78,0,0,1-.3-.07.75.75,0,0,1-.4-1h0l1.17-2.78a.76.76,0,0,1,1-.3.75.75,0,0,1,.36.89l-1.17,2.78A.78.78,0,0,1,143.66,184.12Zm2.7-6.48a1.07,1.07,0,0,1-.3-.06.77.77,0,0,1-.4-1l1.17-2.78a.75.75,0,0,1,1-.32.74.74,0,0,1,.37.91l-1.17,2.78a.78.78,0,0,1-.66.46Zm2.7-6.48a1.07,1.07,0,0,1-.3-.06.76.76,0,0,1-.4-1l1.17-2.77a.77.77,0,0,1,.95-.5.75.75,0,0,1,.5.94.59.59,0,0,1-.06.14l-1.17,2.78a.77.77,0,0,1-.62.46Z"/><path class="cls-3" d="M153.7,184.12a.82.82,0,0,1-.3-.07.75.75,0,0,1-.39-1h0l1.17-2.78a.75.75,0,0,1,1.38.59l-1.17,2.78A.73.73,0,0,1,153.7,184.12Zm2.7-6.48a1.07,1.07,0,0,1-.3-.06.77.77,0,0,1-.39-1l1.17-2.78a.75.75,0,0,1,1-.32.74.74,0,0,1,.36.91l-1.17,2.78a.73.73,0,0,1-.65.46Zm2.7-6.48a1.07,1.07,0,0,1-.3-.06.76.76,0,0,1-.39-1l1.17-2.77a.75.75,0,0,1,1-.41h0a.76.76,0,0,1,.4,1l-1.17,2.78a.78.78,0,0,1-.63.46Z"/><path class="cls-3" d="M163.75,184.12a.59.59,0,0,1-.29-.07.74.74,0,0,1-.41-1h0l1.17-2.78a.76.76,0,0,1,1.38.61l-1.18,2.78A.73.73,0,0,1,163.75,184.12Zm2.7-6.48a.72.72,0,0,1-.29-.06.75.75,0,0,1-.41-1h0l1.17-2.78a.77.77,0,0,1,1-.4.76.76,0,0,1,.4,1h0l-1.18,2.78a.76.76,0,0,1-.64.46Zm2.7-6.48a.72.72,0,0,1-.29-.06.75.75,0,0,1-.41-1h0l1.17-2.77a.76.76,0,1,1,1.4.58l-1.18,2.78a.76.76,0,0,1-.64.46Z"/><path class="cls-3" d="M173.79,184.12a.59.59,0,0,1-.29-.07.75.75,0,0,1-.41-1h0l1.18-2.78a.75.75,0,0,1,1.38.59l-1.18,2.78A.74.74,0,0,1,173.79,184.12Zm2.7-6.48a.72.72,0,0,1-.29-.06.76.76,0,0,1-.4-1h0l1.18-2.78a.75.75,0,0,1,1.38.59l-1.17,2.78a.78.78,0,0,1-.66.46Zm2.7-6.48a1.36,1.36,0,0,1-.29-.06.76.76,0,0,1-.4-1h0l1.18-2.77a.75.75,0,0,1,1.44.44.35.35,0,0,1-.06.14l-1.17,2.78a.78.78,0,0,1-.63.46Z"/><path class="cls-3" d="M184.18,176.79h-63.9a.75.75,0,1,1-.17-1.5h64.07a.75.75,0,0,1,0,1.5Z"/><path class="cls-3" d="M239.62,213.73h-3a.76.76,0,0,1-.16-1.51h3.18a.76.76,0,0,1,0,1.51Zm-7,0h-3a.76.76,0,0,1,0-1.51h3a.76.76,0,0,1,.16,1.51Zm-7,0h-3a.77.77,0,0,1-.83-.67.76.76,0,0,1,.67-.84h3.18a.76.76,0,0,1,.16,1.51Zm-7,0h-3a.76.76,0,0,1-.16-1.51h3.18a.76.76,0,0,1,0,1.51Zm-7,0h-3a.76.76,0,0,1,0-1.51h3a.76.76,0,0,1,.16,1.51h-.18Zm-7,0h-3a.76.76,0,1,1-.17-1.51h3.18a.76.76,0,0,1,.17,1.51Zm-7,0h-3a.76.76,0,0,1-.16-1.51h3.17a.77.77,0,0,1,.83.67.76.76,0,0,1-.67.84Zm-7,0h-3a.76.76,0,0,1,0-1.51h3a.77.77,0,0,1,.83.67.76.76,0,0,1-.67.84Zm-7,0h-3a.76.76,0,0,1-.16-1.51h3.18a.76.76,0,0,1,.16,1.51Zm-7,0h-.61a.76.76,0,0,1,0-1.51h.61a.76.76,0,0,1,.16,1.51Z"/><path class="cls-3" d="M368.68,207a1,1,0,0,1-.19-2h.19a23.24,23.24,0,0,0,2.89-.18,1,1,0,0,1,.24,2A25.17,25.17,0,0,1,368.68,207Zm-4,0h-3a1,1,0,0,1,0-2h3a1,1,0,1,1,.19,2Zm-7,0h-3a1,1,0,1,1-.19-2h3.21a1,1,0,0,1,.19,2h-.18Zm-7,0h-3a1,1,0,0,1-.19-2h3.2a1,1,0,0,1,0,2Zm-7,0h-3a1,1,0,0,1,0-2h3a1,1,0,0,1,.19,2Zm32-1a1,1,0,0,1-.28-2,23.63,23.63,0,0,0,2.7-1,1,1,0,0,1,.81,1.8,23.7,23.7,0,0,1-2.95,1.09.92.92,0,0,1-.27.08Zm6.3-3a1,1,0,0,1-1-1,1,1,0,0,1,.45-.83,26.17,26.17,0,0,0,2.3-1.74,1,1,0,1,1,1.43,1.42.63.63,0,0,1-.12.1,25.6,25.6,0,0,1-2.5,1.89,1,1,0,0,1-.51.17Zm5.22-4.67a1,1,0,0,1-.63-.23,1,1,0,0,1-.14-1.41h0a22.84,22.84,0,0,0,1.71-2.33,1,1,0,0,1,1.69,1.09,25.71,25.71,0,0,1-1.86,2.53,1,1,0,0,1-.73.36Zm3.68-6a1,1,0,0,1-1-1,1,1,0,0,1,.08-.37,23.46,23.46,0,0,0,1-2.7,1,1,0,1,1,1.92.56h0a23.4,23.4,0,0,1-1,2.91,1,1,0,0,1-.92.63Zm1.8-6.77h-.12a1,1,0,0,1-.9-1.11h0a25.36,25.36,0,0,0,.14-2.61,1,1,0,0,1,1-1h0a1,1,0,0,1,1,1,26.5,26.5,0,0,1-.15,2.82,1,1,0,0,1-.95.9Z"/><path class="cls-3" d="M316.44,180h-22.1a.9.9,0,0,1,0-1.8h22.1a.9.9,0,1,1,0,1.8Z"/><path class="cls-3" d="M316.44,189h-22.1a.9.9,0,0,1,0-1.8h22.1a.9.9,0,1,1,0,1.8Z"/><path class="cls-3" d="M316.44,193.5H303.38c-.55,0-1-.79-1-1.35s.45-1.35,1-1.35h13.06c.56,0,1,.79,1,1.35S317,193.5,316.44,193.5Z"/><path class="cls-3" d="M316.44,184.5H303.38c-.55,0-1-.79-1-1.35s.45-1.35,1-1.35h13.06c.56,0,1,.79,1,1.35S317,184.5,316.44,184.5Z"/><g class="cls-6"><text class="cls-7" transform="translate(39.73 57.68)">T</text><text class="cls-8" transform="translate(46.3 57.68)">ALK</text></g><g class="cls-6"><text class="cls-9" transform="translate(187.34 93.57)">CONVERS</text><text class="cls-10" transform="translate(240.69 93.57)">A</text><text class="cls-11" transform="translate(247.49 93.57)">TION</text></g><g class="cls-6"><text class="cls-11" transform="translate(260.7 35.73)">VOCABUL<tspan class="cls-12" x="54.28" y="0">A</tspan></text><text class="cls-13" transform="translate(322.96 35.73)">R</text><text class="cls-14" transform="translate(329.88 35.73)">Y</text></g><text class="cls-8" transform="translate(249.67 209.15)">SPEAKING</text><text class="cls-8" transform="translate(5.26 176.23)">SPEECH</text></g></g></g></svg>