<svg xmlns="http://www.w3.org/2000/svg" viewBox="0 0 425.38 323.2"><defs><style>.cls-1{fill:#de7f61;}.cls-2{fill:#00bfd4;}.cls-3{fill:#fd9e80;}.cls-4{fill:#4a342d;}.cls-5{font-size:41px;fill:#00bf66;font-family:Swiss721BT-RomanExtended, Swis721 Ex BT;letter-spacing:0.02em;}.cls-6{fill:#ffae2a;}.cls-7{fill:#fff;}.cls-8{fill:#ffd640;}.cls-11,.cls-12,.cls-9{fill:none;stroke-linecap:round;stroke-miterlimit:10;}.cls-9{stroke:#116b9e;}.cls-12,.cls-9{stroke-width:2px;}.cls-10{fill:#ff3d6a;}.cls-11,.cls-12{stroke:#fff;}.cls-13{fill:#bae4fc;}</style></defs><title>testimonial</title><g id="Layer_2" data-name="Layer 2"><g id="Objects"><path class="cls-1" d="M117.74,63.82a9.09,9.09,0,0,1-8.88,9.3C104,73.12,98.57,67,98.57,61.86s1.77-7.34,6.68-7.34S117.74,58.69,117.74,63.82Z"/><path class="cls-1" d="M161.22,63.82a9.1,9.1,0,0,0,8.89,9.3c4.91,0,10.29-6.13,10.29-11.26s-1.78-7.34-6.68-7.34S161.22,58.69,161.22,63.82Z"/><rect class="cls-1" x="127.15" y="79.64" width="24.66" height="41.8"/><path class="cls-2" d="M215.05,146.08H63.44c5.5-10,11.44-19.38,14.51-20.15,9.65-2.38,49.2-15.34,49.2-15.34s24.51.9,24.66,1,40.95,11,49.7,14.38C205.4,127.45,211,137.53,215.05,146.08Z"/><path class="cls-3" d="M174.89,49c0,26-15.74,52.52-35.16,52.52S104.56,75,104.56,49,120.31,7.51,139.73,7.51,174.89,23.06,174.89,49Z"/><path class="cls-4" d="M146.66,3.87c-15.78-5.63-36.24-1.26-44.14,15.23-4,8.25,3.87,45.51,3.87,45.51l1.37-2.75c2.23-10.25,1.44-26.27,7-30.24,7.34-6.62,17.48-5.8,23.43-3.49,12.51,4.84,31.27,3.14,31.27,3.14l-4.07-13.15C165.15,9.13,146.67,3.87,146.66,3.87Z"/><path class="cls-4" d="M158,24.67a33.27,33.27,0,0,1,10.14,9.2c6.2,8.65,0,31.78,4.63,31.78,0,0,10.25-35.48,2.78-43.47s-16.1-4.45-16.1-4.45L158,24.27Z"/><path class="cls-1" d="M151.87,111.58c0,2.56-5.45,4.65-12.17,4.65s-12.55-3.07-12.55-5.64,5.82-3.67,12.55-3.67S151.87,109,151.87,111.58Z"/><text class="cls-5" transform="translate(56.65 181.9)">TESTIMONIALS</text><path class="cls-6" d="M146,195.05H71.12L46.2,170.12v24.93H46a43.39,43.39,0,1,0,0,86.77H146a43.39,43.39,0,0,0,0-86.77Z"/><path class="cls-7" d="M155.49,221.31a1.4,1.4,0,0,1-1.4,1.4H40.86a1.4,1.4,0,0,1-1.4-1.4h0a1.4,1.4,0,0,1,1.4-1.4H154.09a1.4,1.4,0,0,1,1.4,1.4Z"/><path class="cls-7" d="M155.49,239.21a1.4,1.4,0,0,1-1.4,1.39H40.86a1.4,1.4,0,0,1-1.4-1.39h0a1.4,1.4,0,0,1,1.4-1.4H154.09a1.4,1.4,0,0,1,1.4,1.4Z"/><path class="cls-7" d="M155.49,257.1a1.4,1.4,0,0,1-1.4,1.4H40.86a1.4,1.4,0,0,1-1.4-1.4h0a1.4,1.4,0,0,1,1.4-1.4H154.09a1.4,1.4,0,0,1,1.4,1.4Z"/><path class="cls-6" d="M387.19,81.84H291.31a24.7,24.7,0,1,0,0,49.4h81.07l10.92,10.07V131.24h3.89a24.7,24.7,0,0,0,0-49.4Z"/><path class="cls-7" d="M389.48,95.22a1.26,1.26,0,0,1-1.26,1.26H286.45a1.26,1.26,0,0,1-1.26-1.26h0A1.26,1.26,0,0,1,286.45,94H388.22a1.26,1.26,0,0,1,1.26,1.25Z"/><path class="cls-7" d="M389.48,106.73a1.26,1.26,0,0,1-1.26,1.26H286.45a1.26,1.26,0,0,1-1.26-1.26h0a1.26,1.26,0,0,1,1.26-1.25H388.22a1.26,1.26,0,0,1,1.26,1.25Z"/><path class="cls-7" d="M320.3,118.25A1.26,1.26,0,0,1,319,119.5H286.45a1.26,1.26,0,0,1-1.26-1.25h0a1.26,1.26,0,0,1,1.26-1.26H319a1.26,1.26,0,0,1,1.26,1.26Z"/><path class="cls-8" d="M273.55,31.91A22.62,22.62,0,1,1,250.94,9.29,22.61,22.61,0,0,1,273.55,31.91Z"/><path class="cls-9" d="M237.31,29a3.47,3.47,0,0,1,6.93,0"/><path class="cls-9" d="M257.64,29a3.47,3.47,0,0,1,6.93,0"/><path class="cls-9" d="M240.77,33.18a10.17,10.17,0,0,0,20.34,0"/><path class="cls-8" d="M259.48,215.6A21.5,21.5,0,1,1,238,194.11,21.49,21.49,0,0,1,259.48,215.6Z"/><path class="cls-9" d="M225,212.87a3.29,3.29,0,0,1,6.58,0"/><path class="cls-9" d="M244.36,212.87a3.29,3.29,0,0,1,6.58,0"/><path class="cls-9" d="M229.63,223.58a9.66,9.66,0,0,1,16.84.23"/><path class="cls-8" d="M86.36,79.64A22.92,22.92,0,1,1,63.44,56.71,22.92,22.92,0,0,1,86.36,79.64Z"/><path class="cls-9" d="M49.63,76.72a3.51,3.51,0,1,1,7,0"/><path class="cls-9" d="M70.23,76.72a3.51,3.51,0,0,1,7,0"/><line class="cls-9" x1="53.14" y1="87.87" x2="73.74" y2="87.87"/><rect class="cls-10" x="162.41" y="253.57" width="58.08" height="38.51"/><polygon class="cls-11" points="185.48 272.83 185.48 264.86 192.38 268.84 199.28 272.83 192.38 276.81 185.48 280.79 185.48 272.83"/><polygon class="cls-8" points="34.22 136.57 40.16 139.69 39.02 133.09 43.82 128.41 37.19 127.45 34.22 121.44 31.26 127.45 24.62 128.41 29.42 133.09 28.29 139.69 34.22 136.57"/><polygon class="cls-8" points="61.69 136.57 67.62 139.69 66.49 133.09 71.29 128.41 64.66 127.45 61.69 121.44 58.72 127.45 52.09 128.41 56.89 133.09 55.76 139.69 61.69 136.57"/><polygon class="cls-8" points="89.15 136.57 95.09 139.69 93.95 133.09 98.75 128.41 92.12 127.45 89.15 121.44 86.19 127.45 79.56 128.41 84.36 133.09 83.22 139.69 89.15 136.57"/><polygon class="cls-12" points="116.62 136.57 122.55 139.69 121.42 133.09 126.22 128.41 119.59 127.45 116.62 121.44 113.65 127.45 107.02 128.41 111.82 133.09 110.69 139.69 116.62 136.57"/><polygon class="cls-12" points="144.09 136.57 150.02 139.69 148.88 133.09 153.69 128.41 147.05 127.45 144.09 121.44 141.12 127.45 134.49 128.41 139.29 133.09 138.15 139.69 144.09 136.57"/><polygon class="cls-9" points="394.18 63.46 403 68.1 401.32 58.27 408.46 51.32 398.59 49.88 394.18 40.94 389.77 49.88 379.9 51.32 387.04 58.27 385.36 68.1 394.18 63.46"/><path class="cls-10" d="M304.9,58.07a5.4,5.4,0,0,0-10.8,0,5.4,5.4,0,0,0-10.79,0,2.16,2.16,0,0,0,0,.38,5.24,5.24,0,0,0,.25,1.31c.66,2.38,2.9,7,10.52,11.78,7.62-4.82,9.87-9.4,10.53-11.78a5.73,5.73,0,0,0,.25-1.31C304.9,58.21,304.9,58.07,304.9,58.07Z"/><path class="cls-10" d="M297.3,192.36a5.4,5.4,0,0,0-10.8,0,5.4,5.4,0,1,0-10.79,0,2.06,2.06,0,0,0,0,.37,5.23,5.23,0,0,0,.25,1.32c.66,2.37,2.9,7,10.52,11.77,7.62-4.81,9.87-9.4,10.53-11.77a5.71,5.71,0,0,0,.25-1.32C297.3,192.49,297.3,192.36,297.3,192.36Z"/><path class="cls-10" d="M329.07,192.36a5.4,5.4,0,1,0-10.8,0,5.4,5.4,0,1,0-10.79,0,2.06,2.06,0,0,0,0,.37,5.23,5.23,0,0,0,.25,1.32c.66,2.37,2.9,7,10.52,11.77,7.62-4.81,9.87-9.4,10.53-11.77a5.71,5.71,0,0,0,.25-1.32C329.07,192.49,329.07,192.36,329.07,192.36Z"/><path class="cls-10" d="M360.84,192.36a5.4,5.4,0,1,0-10.8,0,5.4,5.4,0,1,0-10.79,0s0,.13,0,.37a5.23,5.23,0,0,0,.25,1.32c.66,2.37,2.9,7,10.52,11.77,7.63-4.81,9.87-9.4,10.53-11.77a5.23,5.23,0,0,0,.25-1.32C360.84,192.49,360.84,192.36,360.84,192.36Z"/><path class="cls-10" d="M392.61,192.36a5.4,5.4,0,1,0-10.79,0,5.4,5.4,0,1,0-10.8,0,2.06,2.06,0,0,0,0,.37,5.71,5.71,0,0,0,.25,1.32c.66,2.37,2.91,7,10.53,11.77,7.62-4.81,9.86-9.4,10.52-11.77a5.23,5.23,0,0,0,.25-1.32A2.06,2.06,0,0,0,392.61,192.36Z"/><path class="cls-9" d="M424.38,192.36a5.4,5.4,0,1,0-10.79,0,5.4,5.4,0,0,0-10.8,0s0,.13,0,.37a5.71,5.71,0,0,0,.25,1.32c.66,2.37,2.9,7,10.53,11.77,7.62-4.81,9.86-9.4,10.52-11.77a5.23,5.23,0,0,0,.25-1.32C424.38,192.49,424.38,192.36,424.38,192.36Z"/><path class="cls-9" d="M29.5,202.19a7.13,7.13,0,0,0-14.25,0,7.13,7.13,0,0,0-14.25,0,3.74,3.74,0,0,0,0,.5,7.58,7.58,0,0,0,.34,1.73c.87,3.14,3.83,9.18,13.89,15.54,10.06-6.36,13-12.4,13.89-15.54a7.07,7.07,0,0,0,.33-1.73C29.5,202.37,29.5,202.19,29.5,202.19Z"/><path class="cls-4" d="M319,223.15s4.47-17.55,26.17-11.33,26.75,58.64-.82,68c0,0-5.56-29-16.89-36.86S319,224.27,319,224.27"/><path class="cls-1" d="M307.39,258.54a6.34,6.34,0,0,1-6.2,6.49c-3.42,0-7.17-4.28-7.17-7.86s1.23-5.11,4.66-5.11S307.39,255,307.39,258.54Z"/><path class="cls-1" d="M337.71,258.54A6.34,6.34,0,0,0,343.9,265c3.43,0,7.18-4.28,7.18-7.86s-1.24-5.11-4.66-5.11S337.71,255,337.71,258.54Z"/><rect class="cls-1" x="313.95" y="269.57" width="17.2" height="29.15"/><path class="cls-2" d="M375.24,315.9H269.52c3.84-6.94,8-13.51,10.12-14,6.73-1.66,34.31-10.69,34.31-10.69s17.09.63,17.19.67,28.56,7.64,34.66,10C368.52,302.91,372.38,309.94,375.24,315.9Z"/><path class="cls-3" d="M347.24,248.22c0,18.11-11,36.62-24.52,36.62s-24.52-18.51-24.52-36.62,11-28.94,24.52-28.94S347.24,230.12,347.24,248.22Z"/><path class="cls-1" d="M331.19,291.84c0,1.79-3.8,3.25-8.49,3.25S314,293,314,291.16s4.06-2.56,8.75-2.56S331.19,290.05,331.19,291.84Z"/><path class="cls-4" d="M330.06,220.41s3.79,23.06-31.86,31.65c0,0-10.65-43.13,31.32-34"/><path class="cls-4" d="M325.27,231.13s8.83,18.08,21.81,20.93c0,0,9-33.54-20.06-32.42l-2.55,10.76"/><path class="cls-6" d="M231.23,92.46a25.79,25.79,0,1,1-25.79-25.78A25.79,25.79,0,0,1,231.23,92.46Z"/><polygon class="cls-6" points="185.34 87.79 169.45 87.79 191.45 104.87 185.34 87.79"/><path class="cls-7" d="M200.14,92.46a1.53,1.53,0,1,1-1.53-1.53A1.53,1.53,0,0,1,200.14,92.46Z"/><path class="cls-7" d="M206.38,92.46a1.53,1.53,0,1,1-1.53-1.53A1.54,1.54,0,0,1,206.38,92.46Z"/><path class="cls-7" d="M212.61,92.46a1.53,1.53,0,1,1-1.53-1.53A1.53,1.53,0,0,1,212.61,92.46Z"/><path class="cls-6" d="M238,279.39a25.08,25.08,0,1,0,25.07-25.08A25.07,25.07,0,0,0,238,279.39Z"/><polygon class="cls-6" points="282.62 274.85 298.06 274.85 276.68 291.46 282.62 274.85"/><path class="cls-7" d="M257.56,279.39a1.79,1.79,0,1,1-1.78-1.78A1.78,1.78,0,0,1,257.56,279.39Z"/><path class="cls-7" d="M264.85,279.39a1.79,1.79,0,1,1-1.79-1.78A1.78,1.78,0,0,1,264.85,279.39Z"/><path class="cls-7" d="M272.13,279.39a1.79,1.79,0,1,1-1.78-1.78A1.78,1.78,0,0,1,272.13,279.39Z"/><path class="cls-2" d="M371.06,36.19A4.94,4.94,0,0,0,369.83,33a4.92,4.92,0,0,0,1.69-3.7,5,5,0,0,0-5-5H346.79c.36-2.44,1.09-7.6,1.07-9.15,0-1.28.85-3.91-1.5-10.51S339.81.23,339.23.89,339.4,9.38,339,12c-.33,2.35-6.24,10.88-7.26,12.33h-.15V21.54H317.47V54.6h14.15V51L337,53.75a9,9,0,0,0,3.48.85h23.41A3.63,3.63,0,0,0,367.51,51a3.57,3.57,0,0,0-.82-2.28,5,5,0,0,0,2-8.28A5,5,0,0,0,371.06,36.19Z"/><path class="cls-2" d="M78.69,286.85a4.94,4.94,0,0,0,1.23,3.25,5,5,0,0,0,3.3,8.71h19.84c-.36,2.44-1.09,7.63-1.07,9.19,0,1.29-.85,3.93,1.5,10.56s6.58,4.4,7.17,3.75-.17-8.54.2-11.12c.34-2.35,6.27-10.93,7.29-12.38h.15v2.75h14.22V268.35H118.3V272l-5.38-2.8a9,9,0,0,0-3.5-.85H85.91a3.63,3.63,0,0,0-2.83,5.94,5,5,0,0,0-2,8.31A5,5,0,0,0,78.69,286.85Z"/><rect class="cls-13" x="248.32" y="69.36" width="5.22" height="20.55"/><rect class="cls-13" x="240.66" y="77.03" width="20.55" height="5.22"/><rect class="cls-13" x="265.43" y="228.04" width="20.55" height="5.22"/><rect class="cls-13" x="189.39" y="16.95" width="20.55" height="5.22"/><rect class="cls-13" x="194.45" y="186.96" width="5.22" height="20.55"/><rect class="cls-13" x="186.8" y="194.63" width="20.55" height="5.21"/></g></g></svg>