<svg xmlns="http://www.w3.org/2000/svg" viewBox="0 0 456 239.96"><defs><style>.cls-1{font-size:57px;fill:#f7931e;font-family:MicrosoftPhagsPa-Bold, Microsoft PhagsPa;letter-spacing:0.1em;}.cls-1,.cls-6,.cls-8{font-weight:700;}.cls-2,.cls-4{fill:#8cc63f;}.cls-3,.cls-6,.cls-8{fill:#2c2c2c;}.cls-4,.cls-6,.cls-8{font-size:12px;}.cls-4{font-family:LucidaSansUnicode, Lucida Sans Unicode;letter-spacing:0.01em;}.cls-5{fill:#4f4f4f;}.cls-6,.cls-8{font-family:TrebuchetMS-Bold, Trebuchet MS;}.cls-6,.cls-9{letter-spacing:0em;}.cls-7,.cls-8{letter-spacing:0.09em;}.cls-10{letter-spacing:0.03em;}.cls-11{letter-spacing:0.07em;}</style></defs><title>title_1</title><g id="Layer_2" data-name="Layer 2"><g id="Objects"><text class="cls-1" transform="translate(51.46 170.71)">LANGUAGE</text><path class="cls-2" d="M60.84,108.43a9,9,0,0,0-.1-1.38l2.63-3.21-.76-1.31-.45-.78-.76-1.31-4.09.67a9.61,9.61,0,0,0-2.39-1.38l-1.46-3.87H49.53l-1.46,3.87a9.61,9.61,0,0,0-2.39,1.38l-4.09-.67-.76,1.31-.45.78-.76,1.31,2.63,3.21a9.57,9.57,0,0,0,0,2.76L39.62,113l.76,1.32.45.78.76,1.31,4.09-.67a9.28,9.28,0,0,0,2.39,1.37L49.53,121h3.93l1.46-3.88a9.28,9.28,0,0,0,2.39-1.37l4.09.67.76-1.31.45-.78.76-1.32-2.63-3.2A9,9,0,0,0,60.84,108.43Zm-9.35,4.72a4.72,4.72,0,1,1,4.72-4.72A4.71,4.71,0,0,1,51.49,113.15Z"/><path class="cls-2" d="M70.44,94.73a5.32,5.32,0,0,0-.06-.81L71.92,92l-.44-.77-.27-.45-.44-.77-2.4.39a5.56,5.56,0,0,0-1.4-.81l-.86-2.27h-2.3L63,89.63a5.68,5.68,0,0,0-1.39.81l-2.4-.39-.45.77-.26.45L58,92l1.54,1.88a5.32,5.32,0,0,0-.06.81,5.52,5.52,0,0,0,.06.81L58,97.42l.45.77.26.45.45.77,2.4-.39a6,6,0,0,0,1.39.81l.86,2.27h2.3L67,99.83a5.88,5.88,0,0,0,1.4-.81l2.4.39.44-.77.27-.45.44-.77-1.54-1.88A5.52,5.52,0,0,0,70.44,94.73ZM65,97.49a2.77,2.77,0,1,1,2.77-2.76A2.76,2.76,0,0,1,65,97.49Z"/><path class="cls-3" d="M434.88,95.2l-2.62,3.21.76,1.31.44.78.76,1.31,4.1-.67a9.37,9.37,0,0,0,2.38,1.38l1.46,3.87h3.93l1.47-3.87a9.55,9.55,0,0,0,2.38-1.38l4.1.67.75-1.31.45-.78.76-1.31-2.63-3.21a8.71,8.71,0,0,0,0-2.76L456,89.23l-.76-1.31-.45-.77L454,85.83l-4.1.67a9.22,9.22,0,0,0-2.38-1.37l-1.47-3.88h-3.93l-1.46,3.88a9.06,9.06,0,0,0-2.38,1.37l-4.1-.67-.76,1.32-.44.77-.76,1.31,2.62,3.21a9.57,9.57,0,0,0,0,2.76Zm4.53-1.38a4.72,4.72,0,1,1,4.72,4.72A4.72,4.72,0,0,1,439.41,93.82Z"/><path class="cls-3" d="M425.24,80.93l-1.54,1.88.45.77.26.45.44.77,2.4-.39a5.56,5.56,0,0,0,1.4.81l.86,2.27h2.3l.86-2.27a5.56,5.56,0,0,0,1.4-.81l2.4.39.44-.77.26-.45.45-.77-1.54-1.88a5.5,5.5,0,0,0,0-1.62l1.54-1.88-.45-.77-.26-.45-.44-.77-2.4.39a5.56,5.56,0,0,0-1.4-.81l-.86-2.27h-2.3L428.65,75a5.56,5.56,0,0,0-1.4.81l-2.4-.39-.44.77-.26.45-.45.77,1.54,1.88a5.5,5.5,0,0,0,0,1.62Zm2.65-.81a2.77,2.77,0,1,1,2.77,2.77A2.77,2.77,0,0,1,427.89,80.12Z"/><path class="cls-2" d="M218.71,64.64c3.09,0,5.59-3,5.59-6.79s-.83-6.78-5.59-6.78-5.59,3-5.59,6.78,2.51,6.79,5.59,6.79Z"/><path class="cls-2" d="M229.25,74.72c-.1-6.52-1-8.38-7.48-9.56a4.59,4.59,0,0,1-6.12,0c-6.45,1.16-7.36,3-7.47,9.35,0,.52,0,.55,0,.49v.68s1.55,3.13,10.55,3.13,10.55-3.13,10.55-3.13v-.5a3.34,3.34,0,0,1,0-.46Z"/><path class="cls-2" d="M243.3,64.64c3.09,0,5.59-3,5.59-6.79s-.82-6.78-5.59-6.78-5.58,3-5.58,6.78,2.5,6.79,5.58,6.79Z"/><path class="cls-2" d="M253.84,74.72c-.1-6.52-1-8.38-7.48-9.56a4.59,4.59,0,0,1-6.12,0c-6.45,1.16-7.35,3-7.47,9.35,0,.52,0,.55,0,.49v.68s1.55,3.13,10.55,3.13,10.55-3.13,10.55-3.13v-.5s0,0,0-.46Z"/><path class="cls-2" d="M268.33,64.64c3.08,0,5.58-3,5.58-6.79s-.82-6.78-5.58-6.78-5.59,3-5.59,6.78,2.5,6.79,5.59,6.79Z"/><path class="cls-2" d="M278.87,74.72c-.11-6.52-1-8.38-7.48-9.56a4.59,4.59,0,0,1-6.12,0c-6.45,1.16-7.36,3-7.48,9.35,0,.52,0,.55,0,.49v.68s1.55,3.13,10.55,3.13,10.55-3.13,10.55-3.13v-.5a3.34,3.34,0,0,1,0-.46Z"/><polygon class="cls-2" points="174.71 11.25 160.23 24.7 154.27 16.59 150.07 19.68 159.49 32.49 178.25 15.07 174.71 11.25"/><polygon class="cls-2" points="314.78 190.5 300.3 203.95 294.35 195.84 290.14 198.93 299.56 211.75 318.33 194.32 314.78 190.5"/><polygon class="cls-3" points="314.78 186.93 300.3 200.37 294.35 192.27 290.14 195.35 299.56 208.17 318.33 190.74 314.78 186.93"/><path class="cls-2" d="M146.69,59.51a10.29,10.29,0,0,1-5.16-3.71c-1.25-2,.26-2.5-.25-8-.47-5.07-7.45-10.52-15.94-11.07a21.59,21.59,0,0,0-12,2.78c-10.56,5.78-14.74,18-6.59,29.77,7.35,10.62.46,15.42.46,15.42s.27,2.24,4.79,5.24,10.06,1,10.06,1,1.83-6.5,7.81-5.9c4.29.63,10.31-.21,11.83-1.69s-.25-3.1.88-6.94c-3.88-.38-6-2.24-6.23-4.85,4.32.42,6.1-.95,7.33-2.46,0-.89-.12-2.77-.2-4,3.81-1.1,5.27-4.87,3.19-5.48"/><path class="cls-3" d="M148.58,63.93a10.39,10.39,0,0,1-5.16-3.7c-1.25-2,.26-2.51-.25-8-.47-5.07-7.45-10.53-15.94-11.08a21.63,21.63,0,0,0-12,2.78c-10.55,5.78-14.74,18-6.58,29.77,7.35,10.62.45,15.42.45,15.42s.27,2.24,4.79,5.24,10.07,1,10.07,1,1.83-6.5,7.81-5.9c4.28.63,10.3-.21,11.82-1.69s-.25-3.1.89-6.94c-3.89-.38-6-2.24-6.23-4.85,4.31.42,6.09-1,7.33-2.46,0-.89-.13-2.77-.21-4,3.82-1.1,5.28-4.87,3.19-5.48"/><path class="cls-3" d="M170,41.93a16,16,0,0,0-16,15.81v7.13a16.55,16.55,0,0,0,.6,4.42l-7,7.52,9.27-2.68A16.29,16.29,0,0,0,170,80.68a16,16,0,0,0,16-15.81V57.74A16,16,0,0,0,170,41.93Z"/><path class="cls-2" d="M170.87,64.3l-2.2-2.17,0,0a15.09,15.09,0,0,0,3.22-5.66h2.54V54.7h-6.07V53h-1.73V54.7h-6.07v1.73h9.68a13.52,13.52,0,0,1-2.75,4.64,13.76,13.76,0,0,1-2-2.9h-1.73a15.18,15.18,0,0,0,2.58,3.95L162,66.48l1.23,1.23,4.33-4.34,2.7,2.7.66-1.77Zm4.88-4.4H174l-3.9,10.41h1.73l1-2.6h4.11l1,2.6h1.73ZM173.48,66l1.41-3.76,1.4,3.76Z"/><rect class="cls-2" x="222.83" y="189.88" width="56.84" height="24.78" rx="11.1" transform="translate(502.5 404.54) rotate(180)"/><polygon class="cls-2" points="248.54 213.41 246.97 223.24 242.94 214.64 248.54 213.41"/><text class="cls-4" transform="translate(230.8 206.78)">HELLO</text><path class="cls-3" d="M301.3,60.77l-1.85-1.84,0,0a12.82,12.82,0,0,0,2.71-4.77h2.14V52.67H299.2V51.21h-1.46v1.46h-5.11v1.46h8.16A11.36,11.36,0,0,1,298.47,58a11.06,11.06,0,0,1-1.68-2.44h-1.47a13.19,13.19,0,0,0,2.18,3.33l-3.71,3.67,1,1L298.47,60l2.28,2.27.55-1.48Z"/><rect class="cls-3" x="296.68" y="57.19" width="17.87" height="1.49" transform="translate(168.85 337.32) rotate(-74.65)"/><path class="cls-3" d="M313.7,53h-2l-4.41,10h2l1.1-2h4.66l1.11,2h2Zm-2.57,6,1.59-5.29,1.6,5.29Z"/><path class="cls-3" d="M152.05,232.85l-2.2-2.17,0,0a15.16,15.16,0,0,0,3.22-5.66h2.54v-1.74h-6.07v-1.74h-1.73v1.74h-6.07V225h9.68a13.7,13.7,0,0,1-2.74,4.65,13.7,13.7,0,0,1-2-2.9H145a15.18,15.18,0,0,0,2.58,3.95L143.13,235l1.23,1.23,4.34-4.34,2.69,2.7.66-1.77Z"/><rect class="cls-3" x="146.57" y="228.61" width="21.21" height="1.77" transform="matrix(0.26, -0.96, 0.96, 0.26, -105.74, 320.34)"/><path class="cls-3" d="M166.77,224h-2.33l-5.24,13h2.33l1.31-5h5.53l1.31,5H172Zm-3.06,6,1.89-5,1.9,5Z"/><path class="cls-2" d="M401.65,202c0,9.72-8,17-17.68,17h-8a18.27,18.27,0,0,1-4.94-.48l-8.41,7.89,3-10.32a16.84,16.84,0,0,1-7.32-13.91c0-9.72,7.95-17.18,17.67-17.18h8C393.69,185,401.65,192.26,401.65,202Z"/><path class="cls-2" d="M368.37,202.89a1.75,1.75,0,1,1,3.5,0,1.75,1.75,0,1,1-3.5,0Z"/><path class="cls-2" d="M378.24,202.89a1.75,1.75,0,1,1,3.49,0,1.75,1.75,0,1,1-3.49,0Z"/><path class="cls-2" d="M388.11,202.89a1.75,1.75,0,1,1,3.49,0,1.75,1.75,0,1,1-3.49,0Z"/><polygon class="cls-2" points="397.47 92.23 364.19 92.23 364.19 58.91 371.87 48.28 397.47 48.28 397.47 92.23"/><polygon class="cls-2" points="364.19 58.98 372 58.98 372 48.28 364.19 58.98"/><rect class="cls-2" x="369" y="67.98" width="26" height="1"/><polygon class="cls-2" points="395.14 61.98 368.35 61.98 368.35 61.98 395.14 61.98 395.14 61.98"/><rect class="cls-2" x="369" y="72.98" width="26" height="1"/><rect class="cls-2" x="369" y="77.98" width="26" height="1"/><rect class="cls-2" x="369" y="82.98" width="26" height="1"/><rect class="cls-2" x="369" y="86.98" width="26" height="1"/><polygon class="cls-3" points="389.95 96 356.67 96 356.67 62.68 364.35 52.06 389.95 52.06 389.95 96"/><polygon class="cls-5" points="356.67 62.98 365 62.98 365 52.06 356.67 62.98"/><polygon class="cls-5" points="387.32 72.98 360.53 72.98 360.53 72.98 387.32 72.98 387.32 72.98"/><rect class="cls-5" x="362" y="66.98" width="25" height="1"/><polygon class="cls-5" points="387.32 76.98 360.53 76.98 360.53 76.98 387.32 76.98 387.32 76.98"/><rect class="cls-5" x="362" y="80.98" width="25" height="2"/><rect class="cls-5" x="362" y="85.98" width="25" height="1"/><polygon class="cls-5" points="387 89.98 362 89.98 362 89.98 387 89.98 387 89.98"/><rect class="cls-2" x="58.87" y="209.85" width="6" height="12.7" transform="translate(-1.36 0.39) rotate(-0.36)"/><polygon class="cls-2" points="61.41 211.94 61.66 216.44 61.45 220.6 88.2 232.91 88.1 216.28 87.99 198.96 61.41 211.94"/><path class="cls-2" d="M92.44,222.47a1.34,1.34,0,0,1-.35,0,1.39,1.39,0,0,1-1-1.69,18.93,18.93,0,0,0,.46-4.4,13.44,13.44,0,0,0-.89-4.92,1.38,1.38,0,1,1,2.6-.95,16.18,16.18,0,0,1,1.06,5.86,21.59,21.59,0,0,1-.55,5.1A1.38,1.38,0,0,1,92.44,222.47Z"/><path class="cls-2" d="M96.24,227.78a1.42,1.42,0,0,1-.94-.36,1.4,1.4,0,0,1-.1-2s1.93-2.38,1.89-8.78S95,207.4,95,207.37a1.4,1.4,0,0,1,.27-1.94,1.38,1.38,0,0,1,1.93.25c.11.13,2.62,3.44,2.67,11S97.53,227,97.26,227.32A1.41,1.41,0,0,1,96.24,227.78Z"/><rect class="cls-3" x="62.22" y="212.09" width="6" height="12.7" transform="translate(-1.37 0.41) rotate(-0.36)"/><polygon class="cls-3" points="64.76 214.18 65.01 218.68 64.8 222.84 91.55 235.14 91.44 218.51 91.34 201.19 64.76 214.18"/><path class="cls-3" d="M95.79,224.7a1.47,1.47,0,0,1-.36,0,1.39,1.39,0,0,1-1-1.69,18.9,18.9,0,0,0,.46-4.39,13.61,13.61,0,0,0-.89-4.92,1.39,1.39,0,0,1,2.6-1,16.18,16.18,0,0,1,1.06,5.86,21.59,21.59,0,0,1-.55,5.1A1.38,1.38,0,0,1,95.79,224.7Z"/><path class="cls-3" d="M99.59,230a1.42,1.42,0,0,1-.94-.36,1.38,1.38,0,0,1-.1-2s1.93-2.39,1.89-8.78-2.07-9.29-2.09-9.32a1.39,1.39,0,0,1,2.2-1.69c.1.14,2.62,3.45,2.66,11s-2.33,10.35-2.6,10.65A1.39,1.39,0,0,1,99.59,230Z"/><path class="cls-3" d="M97.94,38.94h-2v-2a2.14,2.14,0,1,0-4.28,0v2h-2a2.14,2.14,0,1,0,0,4.28h2v2a2.14,2.14,0,0,0,2.13,2.15,2.21,2.21,0,0,0,.59-.08,2.13,2.13,0,0,0,1.56-2v-2h2a2.33,2.33,0,0,0,.59-.08,2.14,2.14,0,0,0-.57-4.2Z"/><path class="cls-3" d="M422.83,207.44h-2v-2a2.14,2.14,0,0,0-4.28,0v2h-2a2.16,2.16,0,0,0-2.15,2.13,2.14,2.14,0,0,0,2.14,2.15h2v2a2.15,2.15,0,0,0,2.13,2.15,2.21,2.21,0,0,0,.59-.08,2.14,2.14,0,0,0,1.56-2v-2h2a2.33,2.33,0,0,0,.59-.08,2.17,2.17,0,0,0,1.56-2.06A2.14,2.14,0,0,0,422.83,207.44Z"/><path class="cls-2" d="M346.87,72.66h-2v-2a2.14,2.14,0,0,0-4.28,0v2h-2a2.14,2.14,0,0,0,0,4.28h2v2a2.14,2.14,0,0,0,2.13,2.15,2.33,2.33,0,0,0,.59-.08A2.17,2.17,0,0,0,344.82,79v-2h2a2.27,2.27,0,0,0,.59-.09,2.14,2.14,0,0,0-.57-4.2Z"/><path class="cls-2" d="M48.26,209.07h-2v-2a2.14,2.14,0,0,0-2.13-2.15A2.16,2.16,0,0,0,42,207v2h-2a2.14,2.14,0,1,0,0,4.28h2v2a2.14,2.14,0,0,0,2.13,2.15,2.27,2.27,0,0,0,.59-.08,2.14,2.14,0,0,0,1.56-2.05v-2h2a2.2,2.2,0,0,0,.58-.08,2.15,2.15,0,0,0-.57-4.21Z"/><path class="cls-2" d="M212.33,214h-2v-2a2.14,2.14,0,1,0-4.28,0v2h-2a2.15,2.15,0,0,0,0,4.29h2v2a2.15,2.15,0,0,0,2.13,2.15,2.27,2.27,0,0,0,.59-.08,2.13,2.13,0,0,0,1.56-2v-2h2a2.33,2.33,0,0,0,.59-.08,2.14,2.14,0,0,0-.58-4.2Z"/><path class="cls-2" d="M416.53,87h-2v-2a2.14,2.14,0,1,0-4.28,0v2h-2a2.15,2.15,0,0,0,0,4.29h2v2a2.14,2.14,0,0,0,2.13,2.15,2.33,2.33,0,0,0,.59-.08,2.15,2.15,0,0,0,1.56-2v-2h2a2.27,2.27,0,0,0,.59-.08,2.14,2.14,0,0,0-.57-4.2Z"/><path class="cls-3" d="M123.44,185.8c-.29-2-1.39-3.14-3.17-4.17a4.24,4.24,0,0,0-4.56.29c-1.31.88-2.1,2.45-2.43,2.4-.17,0-1.12-1.84-2.73-2.55a5.32,5.32,0,0,0-3.5-.22A5.77,5.77,0,0,0,103,186c-1.06,5.5,5.52,9.89,9.59,12.38a1.41,1.41,0,0,0,1.54.17l.19-.1C118.58,195.75,124.3,191.9,123.44,185.8Z"/><path class="cls-3" d="M15.63,111.9a.83.83,0,0,1-.84-.84V92.23c0-8.23,7.07-14.93,15.75-14.93h66.2a.84.84,0,0,1,0,1.67H30.54c-7.76,0-14.08,6-14.08,13.26v18.83A.83.83,0,0,1,15.63,111.9Z"/><path class="cls-3" d="M97.68,73H96a.84.84,0,1,1,0-1.67h1.67a.84.84,0,1,1,0,1.67Z"/><path class="cls-3" d="M23.07,105.83a.84.84,0,0,1-.84-.83v-3.29a.84.84,0,0,1,1.68,0V105A.84.84,0,0,1,23.07,105.83Zm0-7.66a.84.84,0,0,1-.84-.83V94.05a.84.84,0,1,1,1.68,0v3.29A.84.84,0,0,1,23.07,98.17Zm0-7.66a.84.84,0,0,1-.84-.84V86.39a.84.84,0,1,1,1.68,0v3.28A.84.84,0,0,1,23.07,90.51Zm.65-7.59a.73.73,0,0,1-.25,0,.83.83,0,0,1-.54-1,14.12,14.12,0,0,1,1.46-3.16.84.84,0,0,1,1.15-.27.83.83,0,0,1,.27,1.15,13.31,13.31,0,0,0-1.29,2.79A.82.82,0,0,1,23.72,82.92Zm4.21-6.28a.84.84,0,0,1-.54-1.47,15.5,15.5,0,0,1,2.85-2,.83.83,0,0,1,1.13.34A.84.84,0,0,1,31,74.69a13.84,13.84,0,0,0-2.55,1.74A.82.82,0,0,1,27.93,76.64Zm6.81-3.33a.84.84,0,0,1-.17-1.66,16.47,16.47,0,0,1,3.29-.33H38A.84.84,0,1,1,38,73h-.14a14.55,14.55,0,0,0-3,.3ZM91.63,73H88.35a.84.84,0,1,1,0-1.67h3.28a.84.84,0,1,1,0,1.67ZM84,73H80.68a.84.84,0,0,1,0-1.67H84A.84.84,0,0,1,84,73Zm-7.66,0H73a.84.84,0,0,1,0-1.67h3.29a.84.84,0,0,1,0,1.67Zm-7.66,0H65.36a.84.84,0,1,1,0-1.67h3.29a.84.84,0,0,1,0,1.67ZM61,73H57.7a.84.84,0,1,1,0-1.67H61A.84.84,0,1,1,61,73Zm-7.66,0H50a.84.84,0,1,1,0-1.67h3.28a.84.84,0,1,1,0,1.67Zm-7.66,0H42.38a.84.84,0,1,1,0-1.67h3.28a.84.84,0,1,1,0,1.67Z"/><path class="cls-3" d="M23.07,111.9a.84.84,0,0,1-.84-.84v-1.67a.84.84,0,1,1,1.68,0v1.67A.84.84,0,0,1,23.07,111.9Z"/><path class="cls-3" d="M99.71,78.14a3,3,0,1,1-3-3A3,3,0,0,1,99.71,78.14Z"/><path class="cls-3" d="M439,184.18a3,3,0,1,1-3-3A3,3,0,0,1,439,184.18Z"/><path class="cls-3" d="M173.76,104.65H141.39a.84.84,0,1,1,0-1.68h32.37a.84.84,0,0,1,0,1.68Z"/><path class="cls-3" d="M176.73,103.81a3,3,0,1,1-3-3A3,3,0,0,1,176.73,103.81Z"/><path class="cls-3" d="M144.36,103.81a3,3,0,1,1-3-3A3,3,0,0,1,144.36,103.81Z"/><path class="cls-3" d="M200.17,87.07a3,3,0,1,1-3-3A3,3,0,0,1,200.17,87.07Z"/><path class="cls-3" d="M292.82,87.07a3,3,0,1,1-3-3A3,3,0,0,1,292.82,87.07Z"/><path class="cls-3" d="M286.86,88.18h-3.34a1.12,1.12,0,1,1,0-2.23h3.34a1.12,1.12,0,1,1,0,2.23Zm-7.81,0H275.7a1.12,1.12,0,0,1,0-2.23h3.35a1.12,1.12,0,1,1,0,2.23Zm-7.81,0h-3.35a1.12,1.12,0,1,1,0-2.23h3.35a1.12,1.12,0,0,1,0,2.23Zm-7.82,0h-3.34a1.12,1.12,0,1,1,0-2.23h3.34a1.12,1.12,0,1,1,0,2.23Zm-7.81,0h-3.35a1.12,1.12,0,0,1,0-2.23h3.35a1.12,1.12,0,1,1,0,2.23Zm-7.81,0h-3.35a1.12,1.12,0,1,1,0-2.23h3.35a1.12,1.12,0,0,1,0,2.23Zm-7.82,0h-3.34a1.12,1.12,0,1,1,0-2.23H240a1.12,1.12,0,1,1,0,2.23Zm-7.81,0h-3.35a1.12,1.12,0,0,1,0-2.23h3.35a1.12,1.12,0,1,1,0,2.23Zm-7.81,0H221A1.12,1.12,0,1,1,221,86h3.35a1.12,1.12,0,0,1,0,2.23Zm-7.82,0h-3.35a1.12,1.12,0,0,1,0-2.23h3.35a1.12,1.12,0,1,1,0,2.23Zm-7.81,0h-3.35a1.12,1.12,0,0,1,0-2.23h3.35a1.12,1.12,0,1,1,0,2.23Zm-7.81,0h-3.35a1.12,1.12,0,1,1,0-2.23h3.35a1.12,1.12,0,0,1,0,2.23Z"/><path class="cls-3" d="M268.26,228.82a3,3,0,1,1-3-3A3,3,0,0,1,268.26,228.82Z"/><path class="cls-3" d="M126.5,213.2a3,3,0,1,1-3-3A3,3,0,0,1,126.5,213.2Z"/><path class="cls-3" d="M266.77,230.22h-72a8.66,8.66,0,0,1-8.65-8.65,7,7,0,0,0-7-7H123.9a.84.84,0,1,1,0-1.67h55.25a8.66,8.66,0,0,1,8.65,8.65,7,7,0,0,0,7,7h72a.84.84,0,0,1,0,1.68Z"/><path class="cls-3" d="M436.44,183.9a.84.84,0,0,1-.84-.84V129.3a25.8,25.8,0,0,0-25.77-25.77H354.77a27.47,27.47,0,0,1-27.44-27.44V61.39a.84.84,0,0,1,1.67,0v14.7a25.8,25.8,0,0,0,25.77,25.77h55.06a27.47,27.47,0,0,1,27.44,27.44v53.76A.84.84,0,0,1,436.44,183.9Z"/><path class="cls-3" d="M444.25,193.94a.84.84,0,0,1-.84-.83V139.34a.84.84,0,1,1,1.68,0v53.77A.84.84,0,0,1,444.25,193.94Z"/><path class="cls-3" d="M6,159.62a3,3,0,1,1-3-3A3,3,0,0,1,6,159.62Z"/><path class="cls-3" d="M3.35,159.34a.84.84,0,0,1-.84-.84V104.74a.84.84,0,0,1,1.68,0V158.5A.84.84,0,0,1,3.35,159.34Z"/><path class="cls-3" d="M11.53,135.06a3,3,0,1,1-3-3A3,3,0,0,1,11.53,135.06Z"/><path class="cls-3" d="M8.93,134.78a.84.84,0,0,1-.84-.83V80.18a.84.84,0,0,1,1.68,0V134A.84.84,0,0,1,8.93,134.78Z"/><path class="cls-3" d="M226.9,43.84c-.52,0-1,0-1.48-.05a.84.84,0,1,1,.11-1.67c.45,0,.91.05,1.37,0s1.23,0,1.84-.08a.82.82,0,0,1,.91.75.83.83,0,0,1-.75.91C228.23,43.8,227.56,43.84,226.9,43.84ZM221.09,43a.85.85,0,0,1-.23,0,22,22,0,0,1-3.26-1.22.83.83,0,1,1,.71-1.51,20,20,0,0,0,3,1.12.84.84,0,0,1-.22,1.64Zm12.1-.15a.84.84,0,0,1-.25-1.64,20.17,20.17,0,0,0,3-1.2.84.84,0,0,1,1.12.38.83.83,0,0,1-.38,1.12,21.9,21.9,0,0,1-3.22,1.3A1.09,1.09,0,0,1,233.19,42.88Zm-19.06-3.32a.86.86,0,0,1-.5-.17,22.83,22.83,0,0,1-2.6-2.31.83.83,0,0,1,0-1.18.84.84,0,0,1,1.18,0,21.2,21.2,0,0,0,2.4,2.14.83.83,0,0,1,.16,1.17A.82.82,0,0,1,214.13,39.56Zm25.92-.33a.86.86,0,0,1-.66-.31.84.84,0,0,1,.13-1.18,20.4,20.4,0,0,0,2.35-2.2.84.84,0,0,1,1.24,1.13,22,22,0,0,1-2.54,2.38A.86.86,0,0,1,240.05,39.23Zm-31.14-5.41a.85.85,0,0,1-.72-.4,21.42,21.42,0,0,1-1.58-3.09.83.83,0,0,1,.44-1.09.84.84,0,0,1,1.1.45,19.7,19.7,0,0,0,1.47,2.85.84.84,0,0,1-.27,1.15A.8.8,0,0,1,208.91,33.82Zm36.22-.46a.81.81,0,0,1-.42-.12.82.82,0,0,1-.3-1.14,19.31,19.31,0,0,0,1.39-2.9.84.84,0,0,1,1.09-.47.83.83,0,0,1,.47,1.08,20.48,20.48,0,0,1-1.51,3.13A.82.82,0,0,1,245.13,33.36Zm-39-6.79a.85.85,0,0,1-.83-.68,22.18,22.18,0,0,1-.36-3.46.85.85,0,0,1,.82-.86.83.83,0,0,1,.86.82,20.19,20.19,0,0,0,.33,3.2.84.84,0,0,1-.67,1ZM247.75,26h-.14a.83.83,0,0,1-.69-1,21.25,21.25,0,0,0,.25-3.2.84.84,0,1,1,1.67,0,22.34,22.34,0,0,1-.27,3.47A.83.83,0,0,1,247.75,26Zm-41.64-7.23-.15,0a.82.82,0,0,1-.67-1,21.66,21.66,0,0,1,.91-3.36.84.84,0,1,1,1.57.57,19.3,19.3,0,0,0-.83,3.09A.84.84,0,0,1,206.11,18.81Zm41.44-.5a.83.83,0,0,1-.82-.66,19.79,19.79,0,0,0-.92-3.08.84.84,0,0,1,1.57-.6,22.74,22.74,0,0,1,1,3.33.85.85,0,0,1-.65,1Zm-38.62-6.74a.84.84,0,0,1-.71-1.28,22.4,22.4,0,0,1,2.06-2.8.84.84,0,1,1,1.26,1.1,20.63,20.63,0,0,0-1.9,2.58A.83.83,0,0,1,208.93,11.57Zm35.63-.43a.84.84,0,0,1-.7-.37,19.3,19.3,0,0,0-2-2.54A.85.85,0,0,1,242,7a.84.84,0,0,1,1.18.06,21.72,21.72,0,0,1,2.13,2.75A.83.83,0,0,1,245,11,.84.84,0,0,1,244.56,11.14ZM214.17,5.83a.82.82,0,0,1-.67-.33.83.83,0,0,1,.16-1.17,22,22,0,0,1,2.93-1.87.85.85,0,0,1,1.14.35.84.84,0,0,1-.35,1.13,20.36,20.36,0,0,0-2.71,1.73A.85.85,0,0,1,214.17,5.83Zm25-.29a.82.82,0,0,1-.49-.16A21.37,21.37,0,0,0,236,3.72a.86.86,0,0,1-.38-1.13.84.84,0,0,1,1.13-.37,22.69,22.69,0,0,1,3,1.8.84.84,0,0,1-.49,1.52ZM221.12,2.38a.83.83,0,0,1-.8-.61.84.84,0,0,1,.57-1A21.87,21.87,0,0,1,224.3.06a.83.83,0,0,1,.93.73.83.83,0,0,1-.73.93,20.67,20.67,0,0,0-3.15.63A.91.91,0,0,1,221.12,2.38Zm11-.13a.76.76,0,0,1-.21,0,19.7,19.7,0,0,0-3.16-.55A.84.84,0,0,1,228,.76a.85.85,0,0,1,.91-.76,22,22,0,0,1,3.43.6.83.83,0,0,1,.6,1A.84.84,0,0,1,232.15,2.25Z"/><path class="cls-3" d="M249.22,43.84c-.48,0-1,0-1.47-.05a.84.84,0,1,1,.1-1.67c.46,0,.9.05,1.37,0s1.23,0,1.85-.08a.83.83,0,0,1,.91.75.84.84,0,0,1-.76.91C250.56,43.8,249.88,43.84,249.22,43.84ZM243.41,43a.91.91,0,0,1-.23,0,22.44,22.44,0,0,1-3.26-1.22.83.83,0,1,1,.71-1.51,20.15,20.15,0,0,0,3,1.12.84.84,0,0,1-.23,1.64Zm12.1-.15a.84.84,0,0,1-.25-1.64,19.74,19.74,0,0,0,3-1.2.84.84,0,0,1,.75,1.5,22,22,0,0,1-3.23,1.3A1,1,0,0,1,255.51,42.88Zm-19-3.32a.87.87,0,0,1-.51-.17,22.73,22.73,0,0,1-2.59-2.31.83.83,0,0,1,1.2-1.16,21.2,21.2,0,0,0,2.4,2.14.83.83,0,0,1-.5,1.5Zm25.91-.33a.83.83,0,0,1-.65-.31.84.84,0,0,1,.13-1.18,21.15,21.15,0,0,0,2.34-2.2.85.85,0,0,1,1.19,0,.84.84,0,0,1,.05,1.18,21.18,21.18,0,0,1-2.54,2.38A.84.84,0,0,1,262.37,39.23Zm-31.14-5.41a.83.83,0,0,1-.71-.4,21,21,0,0,1-1.59-3.09.82.82,0,0,1,.45-1.09.83.83,0,0,1,1.09.44,21.43,21.43,0,0,0,1.47,2.86.84.84,0,0,1-.27,1.15A.8.8,0,0,1,231.23,33.82Zm36.22-.46a.81.81,0,0,1-.42-.12.83.83,0,0,1-.3-1.14,20.38,20.38,0,0,0,1.4-2.9.84.84,0,0,1,1.56.61,22.54,22.54,0,0,1-1.51,3.13A.85.85,0,0,1,267.45,33.36Zm-39-6.79a.83.83,0,0,1-.82-.68,22.18,22.18,0,0,1-.36-3.46.84.84,0,1,1,1.67,0,21.43,21.43,0,0,0,.33,3.2.82.82,0,0,1-.67,1ZM270.07,26h-.13a.84.84,0,0,1-.7-1,20,20,0,0,0,.25-3.2.84.84,0,1,1,1.68,0,22.34,22.34,0,0,1-.27,3.47A.85.85,0,0,1,270.07,26Zm-41.63-7.23-.16,0a.84.84,0,0,1-.67-1,22.83,22.83,0,0,1,.91-3.36.84.84,0,1,1,1.58.56,20.88,20.88,0,0,0-.84,3.1A.84.84,0,0,1,228.44,18.81Zm41.43-.5a.84.84,0,0,1-.82-.66,20.9,20.9,0,0,0-.91-3.08.84.84,0,1,1,1.56-.6,21.57,21.57,0,0,1,1,3.33.84.84,0,0,1-.65,1Zm-38.62-6.74a.8.8,0,0,1-.44-.13.84.84,0,0,1-.27-1.15,22.4,22.4,0,0,1,2.06-2.8.84.84,0,0,1,1.27,1.1A20.71,20.71,0,0,0,232,11.17.83.83,0,0,1,231.25,11.57Zm35.64-.43a.83.83,0,0,1-.7-.37,20.28,20.28,0,0,0-2-2.54.84.84,0,1,1,1.24-1.13,22.69,22.69,0,0,1,2.13,2.75.85.85,0,0,1-.24,1.16A.87.87,0,0,1,266.89,11.14Zm-30.4-5.31a.84.84,0,0,1-.67-.33A.83.83,0,0,1,236,4.33a21.38,21.38,0,0,1,2.93-1.87.84.84,0,1,1,.78,1.48A20.36,20.36,0,0,0,237,5.67.83.83,0,0,1,236.49,5.83Zm25-.29a.82.82,0,0,1-.49-.16,20.7,20.7,0,0,0-2.75-1.66.84.84,0,0,1-.37-1.13A.83.83,0,0,1,259,2.22,21.45,21.45,0,0,1,262,4a.84.84,0,0,1-.49,1.52ZM243.45,2.38a.84.84,0,0,1-.23-1.65,21.87,21.87,0,0,1,3.41-.67.84.84,0,0,1,.93.73.84.84,0,0,1-.74.93,21.16,21.16,0,0,0-3.15.63A.83.83,0,0,1,243.45,2.38Zm11-.13a.76.76,0,0,1-.21,0,20,20,0,0,0-3.17-.55.83.83,0,0,1-.75-.91.85.85,0,0,1,.91-.76,22.06,22.06,0,0,1,3.42.6.83.83,0,0,1,.6,1A.82.82,0,0,1,254.48,2.25Z"/><path class="cls-3" d="M64.84,234.3h-.62c-.47,0-.84-.7-.84-1.17s.38-1.15.84-1.15h0l.62.32c.88,0,1.78.15,2.7.12a.91.91,0,0,1,.86.89.86.86,0,0,1-.81.9C66.66,234.24,65.74,234.3,64.84,234.3Zm-5.08-.17H59.7c-1.13-.08-2.27-.18-3.37-.31a.84.84,0,0,1-.73-.93.86.86,0,0,1,.93-.74c1.07.13,2.18.23,3.29.31a.84.84,0,0,1-.06,1.67ZM72,234a.83.83,0,0,1-.83-.77.84.84,0,0,1,.77-.9c.9-.07,1.82-.16,2.76-.26a.84.84,0,0,1,.17,1.67c-1,.1-1.88.19-2.8.26Zm-20-.87-.16,0c-1.13-.22-2.25-.48-3.31-.76a.84.84,0,1,1,.43-1.62c1,.27,2.11.52,3.2.74a.83.83,0,0,1,.66,1A.84.84,0,0,1,52,233.13ZM44.53,231a1,1,0,0,1-.3-.05c-1.08-.41-2.13-.85-3.14-1.33a.84.84,0,1,1,.72-1.51c1,.45,2,.88,3,1.27a.84.84,0,0,1-.29,1.62Zm-7-3.44a.78.78,0,0,1-.44-.13c-1-.62-1.92-1.28-2.81-2a.84.84,0,0,1,1-1.32A30.25,30.25,0,0,0,38,226a.84.84,0,0,1-.45,1.55Zm-6.06-4.89a.86.86,0,0,1-.6-.26c-.79-.82-1.56-1.69-2.26-2.58a.85.85,0,0,1,.14-1.18.84.84,0,0,1,1.18.14c.67.85,1.39,1.68,2.14,2.46a.83.83,0,0,1,0,1.18A.86.86,0,0,1,31.48,222.69Zm-4.7-6.22a.82.82,0,0,1-.72-.42A30.36,30.36,0,0,1,24.5,213a.84.84,0,1,1,1.53-.68,28.28,28.28,0,0,0,1.48,2.9.85.85,0,0,1-.31,1.15A.91.91,0,0,1,26.78,216.47Zm-3-7.19a.83.83,0,0,1-.81-.61,21.73,21.73,0,0,1-.71-3.45.83.83,0,0,1,.76-.9.82.82,0,0,1,.91.75,20.19,20.19,0,0,0,.65,3.15.82.82,0,0,1-.58,1A.83.83,0,0,1,23.75,209.28Z"/><path class="cls-3" d="M137.29,204.57a.71.71,0,0,1-.32-.07.83.83,0,0,1-.45-1.09l1.31-3.09a.84.84,0,0,1,1.54.65l-1.31,3.09A.82.82,0,0,1,137.29,204.57Zm3-7.2a.87.87,0,0,1-.32-.06.84.84,0,0,1-.45-1.1l1.31-3.09a.84.84,0,0,1,1.54.66l-1.31,3.08A.82.82,0,0,1,140.33,197.37Zm3-7.2a.91.91,0,0,1-.32-.06.84.84,0,0,1-.45-1.1l1.31-3.08a.84.84,0,1,1,1.54.65l-1.3,3.08A.85.85,0,0,1,143.37,190.17Z"/><path class="cls-3" d="M148.45,204.57a.77.77,0,0,1-.32-.07.83.83,0,0,1-.45-1.09l1.31-3.09a.84.84,0,0,1,1.54.65l-1.3,3.09A.85.85,0,0,1,148.45,204.57Zm3.05-7.2a1,1,0,0,1-.33-.06.84.84,0,0,1-.45-1.1l1.31-3.09a.84.84,0,0,1,1.54.66l-1.3,3.08A.84.84,0,0,1,151.5,197.37Zm3-7.2a1,1,0,0,1-.33-.06.83.83,0,0,1-.44-1.1l1.3-3.08a.84.84,0,1,1,1.54.65l-1.3,3.08A.84.84,0,0,1,154.54,190.17Z"/><path class="cls-3" d="M159.62,204.57a.78.78,0,0,1-.33-.07.83.83,0,0,1-.44-1.09l1.3-3.09a.84.84,0,0,1,1.54.65l-1.3,3.09A.84.84,0,0,1,159.62,204.57Zm3-7.2a1,1,0,0,1-.33-.06.85.85,0,0,1-.44-1.1l1.3-3.09a.84.84,0,0,1,1.54.66l-1.3,3.08A.84.84,0,0,1,162.66,197.37Zm3-7.2a1,1,0,0,1-.33-.06.84.84,0,0,1-.44-1.1l1.3-3.08a.84.84,0,1,1,1.54.65l-1.3,3.08A.84.84,0,0,1,165.7,190.17Z"/><path class="cls-3" d="M170.78,204.57a.78.78,0,0,1-.33-.07.83.83,0,0,1-.44-1.09l1.3-3.09a.84.84,0,0,1,1.54.65l-1.3,3.09A.82.82,0,0,1,170.78,204.57Zm3-7.2a1,1,0,0,1-.33-.06.85.85,0,0,1-.44-1.1l1.3-3.09a.84.84,0,0,1,1.54.66l-1.3,3.08A.82.82,0,0,1,173.82,197.37Zm3-7.2a1,1,0,0,1-.33-.06.84.84,0,0,1-.44-1.1l1.3-3.08a.84.84,0,0,1,1.1-.45.85.85,0,0,1,.45,1.1l-1.31,3.08A.82.82,0,0,1,176.86,190.17Z"/><path class="cls-3" d="M181.94,204.57a.71.71,0,0,1-.32-.07.83.83,0,0,1-.45-1.09l1.3-3.09A.84.84,0,0,1,184,201l-1.31,3.09A.82.82,0,0,1,181.94,204.57Zm3-7.2a.87.87,0,0,1-.32-.06.84.84,0,0,1-.45-1.1l1.3-3.09a.84.84,0,0,1,1.55.66l-1.31,3.08A.82.82,0,0,1,185,197.37Zm3-7.2a.87.87,0,0,1-.32-.06.84.84,0,0,1-.45-1.1l1.3-3.08a.84.84,0,0,1,1.55.65l-1.31,3.08A.82.82,0,0,1,188,190.17Z"/><path class="cls-3" d="M193.1,204.57a.71.71,0,0,1-.32-.07.83.83,0,0,1-.45-1.09l1.31-3.09a.84.84,0,0,1,1.54.65l-1.31,3.09A.82.82,0,0,1,193.1,204.57Zm3-7.2a.87.87,0,0,1-.32-.06.84.84,0,0,1-.45-1.1l1.31-3.09a.84.84,0,0,1,1.54.66l-1.3,3.08A.85.85,0,0,1,196.14,197.37Zm3-7.2a1,1,0,0,1-.32-.06.84.84,0,0,1-.45-1.1l1.31-3.08a.84.84,0,1,1,1.54.65l-1.3,3.08A.85.85,0,0,1,199.18,190.17Z"/><path class="cls-3" d="M204.64,196.43h-71a.84.84,0,1,1,0-1.67h71a.84.84,0,0,1,0,1.67Z"/><path class="cls-3" d="M266.24,237.47h-3.35a.84.84,0,1,1,0-1.67h3.35a.84.84,0,0,1,0,1.67Zm-7.82,0h-3.35a.84.84,0,0,1,0-1.67h3.35a.84.84,0,1,1,0,1.67Zm-7.81,0h-3.35a.84.84,0,1,1,0-1.67h3.35a.84.84,0,1,1,0,1.67Zm-7.81,0h-3.35a.84.84,0,1,1,0-1.67h3.35a.84.84,0,0,1,0,1.67Zm-7.82,0h-3.35a.84.84,0,0,1,0-1.67H235a.84.84,0,1,1,0,1.67Zm-7.81,0h-3.35a.84.84,0,1,1,0-1.67h3.35a.84.84,0,1,1,0,1.67Zm-7.82,0H216a.84.84,0,1,1,0-1.67h3.34a.84.84,0,1,1,0,1.67Zm-7.81,0h-3.35a.84.84,0,0,1,0-1.67h3.35a.84.84,0,1,1,0,1.67Zm-7.81,0h-3.35a.84.84,0,1,1,0-1.67h3.35a.84.84,0,1,1,0,1.67Zm-7.82,0h-.68a.84.84,0,0,1,0-1.67h.68a.84.84,0,1,1,0,1.67Z"/><path class="cls-3" d="M409.65,229.94a1.12,1.12,0,1,1,0-2.23,26.18,26.18,0,0,0,3.2-.2,1.12,1.12,0,0,1,.27,2.22A28.61,28.61,0,0,1,409.65,229.94Zm-4.47,0h-3.35a1.12,1.12,0,0,1,0-2.23h3.35a1.12,1.12,0,1,1,0,2.23Zm-7.81,0H394a1.12,1.12,0,1,1,0-2.23h3.35a1.12,1.12,0,1,1,0,2.23Zm-7.81,0h-3.35a1.12,1.12,0,1,1,0-2.23h3.35a1.12,1.12,0,0,1,0,2.23Zm-7.82,0h-3.35a1.12,1.12,0,0,1,0-2.23h3.35a1.12,1.12,0,1,1,0,2.23Zm35.61-1.12a1.12,1.12,0,0,1-.32-2.19,26.44,26.44,0,0,0,3-1.11,1.11,1.11,0,0,1,.9,2,26.67,26.67,0,0,1-3.27,1.21A1.25,1.25,0,0,1,417.35,228.82Zm7-3.3a1.12,1.12,0,0,1-.62-2.05,26.79,26.79,0,0,0,2.56-1.93,1.12,1.12,0,1,1,1.46,1.69,29.36,29.36,0,0,1-2.78,2.1A1.1,1.1,0,0,1,424.4,225.52Zm5.8-5.19a1.13,1.13,0,0,1-.71-.26,1.11,1.11,0,0,1-.14-1.57,24.92,24.92,0,0,0,1.9-2.59,1.12,1.12,0,0,1,1.88,1.21,28.21,28.21,0,0,1-2.07,2.81A1.13,1.13,0,0,1,430.2,220.33Zm4.08-6.63a1.12,1.12,0,0,1-1-1.56,25.26,25.26,0,0,0,1.08-3,1.11,1.11,0,0,1,2.14.62A26.16,26.16,0,0,1,435.3,213,1.1,1.1,0,0,1,434.28,213.7Zm2-7.53h-.13a1.12,1.12,0,0,1-1-1.24,27.72,27.72,0,0,0,.16-2.9,1.12,1.12,0,0,1,1.12-1.11h0a1.12,1.12,0,0,1,1.11,1.12,29.74,29.74,0,0,1-.17,3.14A1.12,1.12,0,0,1,436.27,206.17Z"/><path class="cls-3" d="M351.6,200H327.05a1,1,0,1,1,0-2H351.6a1,1,0,1,1,0,2Z"/><path class="cls-3" d="M351.6,210H327.05a1,1,0,1,1,0-2H351.6a1,1,0,1,1,0,2Z"/><path class="cls-3" d="M351.6,215H337.09c-.61,0-1.11-.88-1.11-1.5s.5-1.5,1.11-1.5H351.6c.62,0,1.12.88,1.12,1.5S352.22,215,351.6,215Z"/><path class="cls-3" d="M351.6,205H337.09c-.61,0-1.11-.88-1.11-1.5s.5-1.5,1.11-1.5H351.6c.62,0,1.12.88,1.12,1.5S352.22,205,351.6,205Z"/><text class="cls-6" transform="translate(44.14 64.09)">T<tspan class="cls-7" x="7.31" y="0">ALK</tspan></text><text class="cls-8" transform="translate(208.16 103.96)">CONVERS<tspan class="cls-9" x="59.27" y="0">A</tspan><tspan x="66.83" y="0">TION</tspan></text><text class="cls-8" transform="translate(289.67 39.7)">VOCABULA<tspan class="cls-10" x="69.18" y="0">R</tspan><tspan class="cls-11" x="76.86" y="0">Y</tspan></text><text class="cls-8" transform="translate(277.41 232.39)">SPEAKING</text><text class="cls-8" transform="translate(5.84 195.81)">SPEECH</text></g></g></svg>